<svg width="248" height="248" viewBox="0 0 248 248" fill="none" xmlns="http://www.w3.org/2000/svg">
<mask id="path-1-inside-1" fill="white">
<path fill-rule="evenodd" clip-rule="evenodd" d="M93.6749 132.763L93.659 119.577L134.038 119.626L115.214 100.802L124.526 91.4894L159.199 126.162L149.887 135.475L149.887 135.474L124.61 160.751L115.275 151.416L133.88 132.811L93.6749 132.763Z"/>
</mask>
<path d="M93.659 119.577L93.6602 118.577L92.6578 118.576L92.659 119.578L93.659 119.577ZM93.6749 132.763L92.6749 132.764L92.6761 133.762L93.6737 133.763L93.6749 132.763ZM134.038 119.626L134.037 120.626L136.455 120.629L134.745 118.919L134.038 119.626ZM115.214 100.802L114.507 100.095L113.8 100.802L114.507 101.509L115.214 100.802ZM124.526 91.4894L125.234 90.7823L124.526 90.0752L123.819 90.7823L124.526 91.4894ZM159.199 126.162L159.906 126.869L160.613 126.162L159.906 125.455L159.199 126.162ZM149.887 135.475L149.18 136.182L149.887 136.889L150.594 136.182L149.887 135.475ZM149.887 135.474L150.594 134.767L149.887 134.06L149.179 134.767L149.887 135.474ZM124.61 160.751L123.903 161.458L124.61 162.165L125.317 161.458L124.61 160.751ZM115.275 151.416L114.568 150.709L113.861 151.416L114.568 152.123L115.275 151.416ZM133.88 132.811L134.587 133.519L136.291 131.814L133.881 131.811L133.88 132.811ZM92.659 119.578L92.6749 132.764L94.6749 132.762L94.659 119.576L92.659 119.578ZM134.039 118.626L93.6602 118.577L93.6578 120.577L134.037 120.626L134.039 118.626ZM134.745 118.919L115.921 100.095L114.507 101.509L133.331 120.333L134.745 118.919ZM115.921 101.509L125.234 92.1965L123.819 90.7823L114.507 100.095L115.921 101.509ZM123.819 92.1965L158.492 126.869L159.906 125.455L125.234 90.7823L123.819 92.1965ZM158.492 125.455L149.18 134.767L150.594 136.182L159.906 126.869L158.492 125.455ZM150.594 134.767L150.594 134.767L149.179 136.181L149.18 136.182L150.594 134.767ZM125.317 161.458L150.594 136.181L149.179 134.767L123.903 160.044L125.317 161.458ZM114.568 152.123L123.903 161.458L125.317 160.044L115.982 150.709L114.568 152.123ZM133.172 132.104L114.568 150.709L115.982 152.123L134.587 133.519L133.172 132.104ZM93.6737 133.763L133.878 133.811L133.881 131.811L93.6761 131.763L93.6737 133.763Z" fill="#E74A26" mask="url(#path-1-inside-1)"/>
<path d="M247.098 124.567L246.934 128.82C246.898 129.734 246.669 130.482 246.245 131.063C245.82 131.654 245.179 131.933 244.321 131.9C243.827 131.881 243.389 131.728 243.007 131.443C242.635 131.167 242.378 130.802 242.237 130.348C242.073 130.958 241.766 131.418 241.315 131.728C240.864 132.046 240.307 132.193 239.645 132.167C237.77 132.095 236.882 130.8 236.979 128.282L237.137 124.183L247.098 124.567ZM245.929 125.811L242.781 125.69L242.69 128.054C242.68 128.324 242.675 128.553 242.677 128.74C242.689 128.936 242.717 129.157 242.764 129.402C242.811 129.646 242.883 129.841 242.98 129.984C243.086 130.138 243.24 130.27 243.441 130.381C243.642 130.5 243.887 130.566 244.176 130.577C244.465 130.588 244.709 130.551 244.909 130.465C245.117 130.38 245.276 130.274 245.383 130.147C245.5 130.021 245.591 129.842 245.656 129.611C245.721 129.39 245.761 129.186 245.778 129C245.803 128.823 245.822 128.59 245.833 128.301L245.929 125.811ZM241.746 125.65L238.193 125.512L238.091 128.142C238.079 128.469 238.073 128.735 238.074 128.94C238.085 129.146 238.118 129.376 238.174 129.631C238.229 129.894 238.314 130.103 238.43 130.257C238.555 130.411 238.732 130.544 238.961 130.656C239.199 130.768 239.486 130.83 239.822 130.843C240.102 130.854 240.346 130.826 240.554 130.759C240.762 130.702 240.929 130.592 241.057 130.429C241.184 130.275 241.288 130.125 241.369 129.978C241.449 129.841 241.508 129.638 241.546 129.369C241.585 129.099 241.607 128.89 241.613 128.741C241.628 128.592 241.641 128.364 241.653 128.056L241.746 125.65Z" fill="#E74A26"/>
<path d="M245.733 141.984L244.593 141.847L245.259 136.301L242.159 135.929L241.536 141.114L240.438 140.982L241.061 135.797L237.641 135.387L236.967 141.002L235.827 140.866L236.658 133.943L246.555 135.131L245.733 141.984Z" fill="#E74A26"/>
<path d="M245.327 144.559L244.512 148.579C244.31 149.576 243.921 150.321 243.345 150.814C242.778 151.309 242.01 151.458 241.04 151.261C239.074 150.863 238.316 149.552 238.766 147.329L239.303 144.681L235.296 143.869L235.557 142.579L245.327 144.559ZM243.954 145.623L240.387 144.901L239.883 147.384C239.743 148.079 239.761 148.645 239.939 149.081C240.125 149.528 240.552 149.819 241.219 149.955C241.595 150.031 241.919 150.03 242.191 149.952C242.463 149.883 242.682 149.741 242.849 149.528C243.016 149.314 243.144 149.083 243.232 148.834C243.33 148.587 243.415 148.285 243.487 147.929L243.954 145.623Z" fill="#E74A26"/>
<path d="M240.836 162.514L231.288 159.653L231.666 158.392L236.131 159.731L237.642 154.688L233.177 153.35L233.554 152.089L243.103 154.951L242.725 156.211L238.742 155.018L237.231 160.06L241.214 161.254L240.836 162.514Z" fill="#E74A26"/>
<path d="M231.837 165.635L240.024 164.968L239.492 166.308L232.771 166.774L237.365 171.67L236.844 172.984L230.895 166.452C230.28 165.776 229.891 165.175 229.728 164.648C229.562 164.13 229.574 163.633 229.763 163.156C229.928 162.739 230.158 162.389 230.452 162.104L231.493 162.517C231.237 162.706 231.021 163.022 230.846 163.465C230.642 163.977 230.885 164.605 231.574 165.35L231.837 165.635Z" fill="#E74A26"/>
<path d="M232.937 181.062L231.907 180.557L233.38 177.553L225.461 173.669L226.041 172.487L233.959 176.371L235.433 173.367L236.464 173.873L232.937 181.062Z" fill="#E74A26"/>
<path d="M222.006 185.969C221.202 185.495 220.713 184.891 220.539 184.16C220.367 183.44 220.528 182.663 221.022 181.827L223.244 178.066L231.826 183.136L231.157 184.269L227.673 182.212L226.121 184.839C225.622 185.683 225.013 186.201 224.292 186.393C223.58 186.59 222.818 186.449 222.006 185.969ZM222.682 184.824C223.735 185.446 224.632 185.13 225.372 183.877L226.697 181.635L223.563 179.783L222.238 182.025C221.498 183.279 221.646 184.212 222.682 184.824Z" fill="#E74A26"/>
<path d="M216.309 195.5C215.353 194.672 214.811 193.74 214.684 192.704C214.559 191.681 214.859 190.667 215.586 189.66C216.416 188.51 217.453 187.871 218.696 187.744C219.946 187.622 221.219 188.028 222.513 188.962C223.724 189.836 224.487 190.9 224.803 192.152C225.121 193.418 224.849 194.649 223.985 195.844C223.368 196.699 222.594 197.286 221.662 197.603C220.731 197.921 219.829 197.823 218.957 197.308L219.728 196.241C220.345 196.503 220.948 196.535 221.538 196.34C222.136 196.15 222.651 195.756 223.082 195.158C223.732 194.257 223.906 193.347 223.604 192.426C223.296 191.513 222.676 190.721 221.746 190.049C220.716 189.306 219.732 188.964 218.792 189.022C217.852 189.08 217.079 189.529 216.473 190.369C215.975 191.058 215.776 191.749 215.875 192.441C215.981 193.14 216.382 193.803 217.079 194.433L216.309 195.5Z" fill="#E74A26"/>
<path d="M212.668 200.6L211.599 195.328L212.661 194.099L213.734 199.43C214.331 198.897 214.949 198.624 215.59 198.61C216.231 198.597 216.862 198.858 217.484 199.395C218.183 200 218.536 200.669 218.543 201.403C218.551 202.15 218.232 202.898 217.585 203.646L214.784 206.887L207.242 200.37L208.102 199.374L211.322 202.157L212.668 200.6ZM212.17 202.889L214.797 205.159L216.444 203.253C217.433 202.109 217.49 201.158 216.614 200.402C215.738 199.645 214.806 199.839 213.818 200.983L212.17 202.889Z" fill="#E74A26"/>
<path d="M203.596 217.697L196.915 210.299L197.892 209.417L201.016 212.877L204.923 209.349L201.799 205.889L202.775 205.007L209.456 212.405L208.479 213.287L205.693 210.201L201.786 213.729L204.573 216.815L203.596 217.697Z" fill="#E74A26"/>
<path d="M197.478 222.516L188.363 216.91L189.536 216.023L192.258 217.791L195.598 215.268L194.662 212.149L195.779 211.305L198.662 221.621L197.478 222.516ZM193.204 218.393L197.333 221.046L195.929 216.333L193.204 218.393Z" fill="#E74A26"/>
<path d="M178.351 227.397C177.819 226.249 177.708 225.177 178.017 224.18C178.323 223.196 179.014 222.395 180.089 221.775C181.319 221.067 182.526 220.91 183.712 221.305C184.902 221.707 185.895 222.599 186.692 223.982C187.437 225.277 187.697 226.56 187.471 227.831C187.241 229.116 186.488 230.126 185.21 230.862C184.296 231.389 183.349 231.605 182.369 231.513C181.39 231.42 180.608 230.96 180.024 230.133L181.164 229.476C181.62 229.968 182.157 230.246 182.775 230.31C183.398 230.382 184.029 230.234 184.668 229.866C185.63 229.311 186.163 228.552 186.265 227.589C186.359 226.63 186.119 225.653 185.546 224.658C184.913 223.558 184.156 222.842 183.275 222.509C182.394 222.177 181.504 222.269 180.607 222.786C179.871 223.21 179.405 223.758 179.211 224.43C179.021 225.11 179.114 225.88 179.491 226.74L178.351 227.397Z" fill="#E74A26"/>
<path d="M174.89 235.93L167.17 228.52L168.503 227.903L170.79 230.207L174.588 228.448L174.335 225.202L175.605 224.614L176.237 235.306L174.89 235.93ZM171.587 230.995L175.059 234.463L174.686 229.56L171.587 230.995Z" fill="#E74A26"/>
<path d="M164.255 242.991C164.144 242.406 164.201 241.886 164.424 241.429C164.641 240.984 165.027 240.663 165.58 240.464C166.116 240.272 166.629 240.277 167.117 240.479C167.6 240.693 167.973 241.055 168.235 241.566L167.563 241.806C167.115 241.193 166.553 241.008 165.877 241.251C165.226 241.483 164.91 241.983 164.927 242.751L164.255 242.991ZM165.704 229.103L169.066 238.487L167.827 238.931L164.98 230.984L164.954 230.993L163.201 240.588L161.632 241.15L158.271 231.766L159.51 231.322L162.366 239.296L162.392 239.286L164.149 229.66L165.704 229.103Z" fill="#E74A26"/>
<path d="M151.46 243.961L151.169 242.851L154.405 242L152.162 233.47L153.435 233.136L155.677 241.666L158.913 240.815L159.205 241.925L151.46 243.961Z" fill="#E74A26"/>
<path d="M131.242 241.531L131.101 240.391L144.994 238.669L145.136 239.809L131.242 241.531Z" fill="#E74A26"/>
<path d="M125.506 247.113L121.25 247.047C120.336 247.033 119.583 246.821 118.992 246.411C118.391 246 118.098 245.365 118.111 244.507C118.119 244.012 118.261 243.571 118.537 243.183C118.805 242.805 119.163 242.539 119.614 242.388C119 242.238 118.533 241.942 118.213 241.498C117.884 241.054 117.725 240.501 117.735 239.838C117.764 237.963 119.038 237.044 121.558 237.083L125.659 237.146L125.506 247.113ZM124.235 245.973L124.284 242.824L121.918 242.787C121.647 242.783 121.419 242.784 121.232 242.791C121.036 242.806 120.816 242.84 120.572 242.892C120.329 242.945 120.136 243.021 119.995 243.122C119.844 243.231 119.715 243.388 119.609 243.592C119.494 243.795 119.434 244.042 119.43 244.331C119.425 244.62 119.468 244.864 119.559 245.061C119.649 245.268 119.758 245.424 119.887 245.528C120.016 245.642 120.197 245.729 120.429 245.789C120.653 245.848 120.857 245.884 121.044 245.896C121.221 245.918 121.454 245.93 121.743 245.935L124.235 245.973ZM124.3 241.788L124.355 238.232L121.723 238.192C121.396 238.187 121.13 238.187 120.925 238.193C120.719 238.209 120.49 238.247 120.237 238.309C119.975 238.37 119.768 238.46 119.617 238.579C119.465 238.708 119.337 238.888 119.23 239.119C119.124 239.36 119.068 239.649 119.063 239.985C119.059 240.265 119.092 240.508 119.164 240.714C119.226 240.921 119.34 241.086 119.506 241.21C119.663 241.334 119.815 241.434 119.963 241.511C120.102 241.588 120.307 241.642 120.577 241.674C120.847 241.707 121.057 241.724 121.206 241.726C121.355 241.738 121.584 241.746 121.892 241.751L124.3 241.788Z" fill="#E74A26"/>
<path d="M108.178 246.176L108.284 245.033L113.846 245.549L114.135 242.44L108.935 241.958L109.037 240.856L114.237 241.339L114.555 237.91L108.924 237.387L109.03 236.244L115.972 236.888L115.051 246.814L108.178 246.176Z" fill="#E74A26"/>
<path d="M105.569 245.813L101.529 245.106C100.526 244.93 99.7713 244.561 99.2634 243.999C98.7538 243.445 98.5842 242.681 98.7547 241.707C99.1004 239.73 100.39 238.937 102.624 239.328L105.286 239.794L105.99 235.767L107.287 235.994L105.569 245.813ZM104.468 244.469L105.095 240.883L102.599 240.447C101.901 240.324 101.336 240.358 100.905 240.548C100.463 240.745 100.183 241.18 100.065 241.851C99.9995 242.228 100.009 242.552 100.094 242.822C100.171 243.092 100.318 243.307 100.536 243.468C100.754 243.63 100.989 243.751 101.24 243.833C101.489 243.924 101.793 244.001 102.151 244.063L104.468 244.469Z" fill="#E74A26"/>
<path d="M87.6368 241.813L90.244 232.192L91.5142 232.537L90.2948 237.036L95.3756 238.413L96.595 233.914L97.8651 234.258L95.2579 243.879L93.9877 243.535L95.0753 239.521L89.9945 238.144L88.907 242.158L87.6368 241.813Z" fill="#E74A26"/>
<path d="M84.3541 232.916L85.2364 241.083L83.8826 240.586L83.2403 233.879L78.4671 238.601L77.1396 238.114L83.5133 231.996C84.1729 231.363 84.7636 230.958 85.2856 230.782C85.7988 230.602 86.2964 230.601 86.7784 230.778C87.199 230.932 87.5556 231.152 87.8483 231.438L87.4627 232.49C87.2664 232.239 86.9449 232.032 86.4979 231.868C85.9809 231.678 85.3591 231.937 84.6323 232.645L84.3541 232.916Z" fill="#E74A26"/>
<path d="M69.0822 234.488L69.5569 233.442L72.6035 234.826L76.2502 226.795L77.4484 227.339L73.8018 235.37L76.8484 236.753L76.3737 237.799L69.0822 234.488Z" fill="#E74A26"/>
<path d="M63.7085 223.58C64.1623 222.765 64.7528 222.26 65.48 222.067C66.1945 221.877 66.9758 222.018 67.824 222.49L71.6408 224.614L66.794 233.324L65.644 232.684L67.6114 229.149L64.9444 227.665C64.0881 227.188 63.5546 226.592 63.3438 225.877C63.1286 225.17 63.2501 224.404 63.7085 223.58ZM64.8707 224.227C64.2761 225.295 64.615 226.184 65.8873 226.892L68.1628 228.158L69.9327 224.977L67.6572 223.711C66.385 223.003 65.4561 223.175 64.8707 224.227Z" fill="#E74A26"/>
<path d="M54.1307 218.189C54.9343 217.212 55.8521 216.646 56.8842 216.493C57.9034 216.341 58.9253 216.616 59.9501 217.317C61.1213 218.117 61.7864 219.137 61.9454 220.376C62.0991 221.623 61.7257 222.906 60.825 224.223C59.9822 225.456 58.9388 226.246 57.6947 226.594C56.4377 226.945 55.2005 226.704 53.9831 225.872C53.1124 225.276 52.5064 224.517 52.1651 223.594C51.8237 222.671 51.899 221.767 52.3908 220.883L53.4772 221.625C53.2318 222.249 53.2144 222.853 53.425 223.438C53.6304 224.031 54.0374 224.535 54.6461 224.951C55.563 225.578 56.4777 225.728 57.3902 225.403C58.2949 225.071 59.0712 224.432 59.7191 223.484C60.4355 222.436 60.7525 221.443 60.6702 220.505C60.5879 219.567 60.1192 218.806 59.2639 218.221C58.5628 217.742 57.8672 217.56 57.1772 217.676C56.482 217.8 55.8286 218.219 55.2172 218.931L54.1307 218.189Z" fill="#E74A26"/>
<path d="M48.9243 214.676L54.1675 213.473L55.4229 214.503L50.1206 215.712C50.6687 216.294 50.9577 216.906 50.9876 217.546C51.0175 218.187 50.7719 218.824 50.2509 219.459C49.6647 220.173 49.0048 220.543 48.2712 220.569C47.5245 220.596 46.7688 220.296 46.0041 219.668L42.6925 216.951L49.0162 209.245L50.0335 210.08L47.3335 213.37L48.9243 214.676ZM46.6229 214.236L44.4203 216.92L46.3683 218.518C47.5371 219.478 48.4886 219.51 49.2228 218.615C49.957 217.721 49.7397 216.794 48.5709 215.835L46.6229 214.236Z" fill="#E74A26"/>
<path d="M31.6197 206.072L38.8451 199.206L39.7517 200.159L36.3724 203.371L39.9987 207.187L43.378 203.975L44.2846 204.929L37.0592 211.796L36.1526 210.842L39.1666 207.978L35.5402 204.162L32.5263 207.026L31.6197 206.072Z" fill="#E74A26"/>
<path d="M26.6718 200.122L32.0434 190.867L32.9594 192.017L31.2613 194.784L33.8695 198.058L36.9632 197.043L37.8355 198.138L27.5965 201.283L26.6718 200.122ZM30.6843 195.744L28.1371 199.939L32.8127 198.416L30.6843 195.744Z" fill="#E74A26"/>
<path d="M21.2875 181.138C22.4212 180.576 23.4901 180.438 24.4944 180.721C25.4858 181.001 26.3051 181.671 26.9521 182.731C27.6916 183.941 27.8795 185.144 27.516 186.34C27.1445 187.54 26.2777 188.556 24.9156 189.388C23.6412 190.166 22.3653 190.459 21.0881 190.266C19.798 190.069 18.7686 189.342 17.9999 188.083C17.4502 187.183 17.2091 186.242 17.2766 185.261C17.3441 184.279 17.7836 183.485 18.5952 182.88L19.2812 184.003C18.8014 184.471 18.5376 185.015 18.4897 185.635C18.4338 186.26 18.598 186.887 18.9823 187.516C19.5612 188.464 20.3336 188.977 21.2994 189.054C22.2604 189.123 23.2307 188.859 24.2104 188.26C25.2937 187.599 25.9903 186.823 26.3002 185.934C26.6102 185.045 26.4951 184.158 25.9551 183.274C25.5124 182.549 24.9526 182.098 24.2758 181.921C23.5909 181.749 22.8235 181.862 21.9734 182.261L21.2875 181.138Z" fill="#E74A26"/>
<path d="M12.6891 177.966L19.8955 170.055L20.5477 171.372L18.3032 173.718L20.1605 177.469L23.3987 177.131L24.0199 178.386L13.3475 179.295L12.6891 177.966ZM17.5362 174.535L14.1599 178.097L19.0517 177.596L17.5362 174.535Z" fill="#E74A26"/>
<path d="M5.3586 167.578C5.94054 167.453 6.46267 167.495 6.92501 167.706C7.37527 167.912 7.70678 168.289 7.91953 168.837C8.12552 169.368 8.13412 169.88 7.94531 170.374C7.74443 170.862 7.39211 171.244 6.88837 171.52L6.63003 170.854C7.23104 170.391 7.40153 169.824 7.1415 169.154C6.89161 168.51 6.38342 168.207 5.61694 168.244L5.3586 167.578ZM19.2802 168.663L9.9875 172.269L9.51135 171.043L17.3814 167.988L17.3713 167.962L7.73338 166.461L7.13059 164.908L16.4233 161.302L16.8994 162.529L9.00325 165.593L9.01338 165.619L18.6824 167.123L19.2802 168.663Z" fill="#E74A26"/>
<path d="M4.02484 154.783L5.12699 154.462L6.0632 157.674L14.5309 155.206L14.8991 156.47L6.43141 158.938L7.36762 162.15L6.26547 162.471L4.02484 154.783Z" fill="#E74A26"/>
<path d="M5.89145 134.465L7.02652 134.293L9.12123 148.136L7.98616 148.308L5.89145 134.465Z" fill="#E74A26"/>
<path d="M0.0527344 125.074L0.134869 120.819C0.15252 119.905 0.367739 119.153 0.780525 118.563C1.19349 117.964 1.82923 117.673 2.68774 117.69C3.18231 117.699 3.62295 117.843 4.00965 118.121C4.3872 118.39 4.65098 118.75 4.80097 119.201C4.95283 118.588 5.25121 118.122 5.69609 117.804C6.14116 117.476 6.69497 117.319 7.35751 117.332C9.23316 117.368 10.1467 118.646 10.098 121.165L10.0189 125.267L0.0527344 125.074ZM1.19738 123.808L4.3468 123.869L4.39246 121.503C4.39768 121.233 4.39743 121.004 4.3917 120.817C4.37682 120.621 4.34372 120.401 4.29242 120.157C4.24111 119.913 4.16548 119.721 4.06554 119.579C3.95644 119.427 3.80024 119.298 3.59692 119.192C3.39379 119.076 3.14758 119.015 2.8583 119.009C2.56902 119.004 2.3255 119.046 2.12774 119.135C1.92064 119.225 1.76451 119.334 1.65934 119.462C1.54484 119.591 1.45734 119.771 1.39685 120.003C1.33654 120.226 1.29991 120.431 1.28698 120.617C1.26489 120.794 1.25106 121.027 1.24547 121.317L1.19738 123.808ZM5.3826 123.889L8.93794 123.958L8.98873 121.326C8.99504 120.999 8.99551 120.733 8.99014 120.528C8.97544 120.322 8.93786 120.093 8.8774 119.84C8.81712 119.577 8.72777 119.37 8.60934 119.218C8.48158 119.066 8.30204 118.937 8.07074 118.83C7.8301 118.722 7.54181 118.666 7.20587 118.659C6.92592 118.654 6.68258 118.686 6.47584 118.757C6.26929 118.818 6.10373 118.932 5.97918 119.098C5.85481 119.254 5.75385 119.406 5.67632 119.554C5.59896 119.692 5.54368 119.897 5.51046 120.167C5.47724 120.437 5.45919 120.646 5.45631 120.796C5.4441 120.945 5.43502 121.173 5.42907 121.481L5.3826 123.889Z" fill="#E74A26"/>
<path d="M1.07783 107.643L2.22007 107.758L1.66103 113.316L4.76735 113.629L5.28997 108.433L6.39041 108.543L5.8678 113.739L9.29451 114.084L9.86056 108.456L11.0028 108.571L10.305 115.508L0.387088 114.511L1.07783 107.643Z" fill="#E74A26"/>
<path d="M1.42002 105.097L2.15773 101.062C2.34069 100.061 2.71541 99.3091 3.2819 98.8055C3.8392 98.3001 4.60445 98.1364 5.57765 98.3143C7.5516 98.6752 8.33464 99.9712 7.92676 102.202L7.44082 104.86L11.4622 105.595L11.2255 106.89L1.42002 105.097ZM2.7722 104.007L6.35286 104.661L6.80858 102.169C6.93614 101.471 6.90664 100.906 6.72007 100.473C6.52599 100.03 6.09384 99.7465 5.42361 99.624C5.04719 99.5552 4.72328 99.5624 4.45189 99.6456C4.18217 99.7196 3.96582 99.8651 3.80282 100.082C3.63983 100.299 3.51647 100.532 3.43274 100.783C3.33984 101.032 3.26065 101.335 3.19519 101.693L2.7722 104.007Z" fill="#E74A26"/>
<path d="M5.56826 87.0073L15.1692 89.6874L14.8154 90.955L10.325 89.7015L8.9097 94.7717L13.4 96.0251L13.0462 97.2927L3.44525 94.6126L3.79908 93.345L7.80397 94.463L9.21931 89.3928L5.21442 88.2749L5.56826 87.0073Z" fill="#E74A26"/>
<path d="M14.5171 83.6582L6.3437 84.4791L6.85028 83.1291L13.562 82.5372L8.87662 77.7287L9.37337 76.4048L15.443 82.8243C16.071 83.4886 16.4713 84.0824 16.6438 84.6057C16.8195 85.1202 16.8173 85.6178 16.6369 86.0984C16.4795 86.5179 16.2566 86.8729 15.9682 87.1634L14.9196 86.7699C15.1719 86.5755 15.3817 86.2555 15.549 85.8098C15.7424 85.2943 15.488 84.6705 14.7857 83.9384L14.5171 83.6582Z" fill="#E74A26"/>
<path d="M12.8969 68.707L13.9386 69.1895L12.5326 72.2257L20.536 75.9321L19.983 77.1262L11.9796 73.4199L10.5735 76.4561L9.53177 75.9737L12.8969 68.707Z" fill="#E74A26"/>
<path d="M23.8318 63.3586C24.644 63.8185 25.1442 64.4127 25.3323 65.1412C25.5169 65.8571 25.3701 66.6374 24.8919 67.4821L22.7399 71.2831L14.0656 66.3721L14.714 65.2269L18.2348 67.2203L19.7385 64.5644C20.2213 63.7116 20.8212 63.1825 21.5381 62.977C22.2469 62.767 23.0115 62.8942 23.8318 63.3586ZM23.1766 64.516C22.1126 63.9136 21.2219 64.2459 20.5046 65.513L19.2217 67.779L22.3892 69.5723L23.6722 67.3063C24.3895 66.0393 24.2243 65.1092 23.1766 64.516Z" fill="#E74A26"/>
<path d="M29.49 53.4729C30.461 54.2836 31.0196 55.2055 31.1657 56.2388C31.3095 57.259 31.0273 58.2789 30.3193 59.2985C29.5102 60.4638 28.4854 61.1214 27.2449 61.2714C25.9969 61.416 24.7174 61.0331 23.4064 60.1228C22.1798 59.2711 21.3971 58.2219 21.0583 56.9753C20.7171 55.7157 20.9671 54.4803 21.8082 53.269C22.4097 52.4027 23.1732 51.8023 24.0987 51.4677C25.0242 51.1332 25.9275 51.215 26.8087 51.7133L26.0581 52.7943C25.4363 52.5443 24.8321 52.5225 24.2457 52.7288C23.6516 52.9299 23.1442 53.3332 22.7237 53.9388C22.0902 54.8511 21.933 55.7647 22.2523 56.6795C22.5768 57.5866 23.2106 58.3676 24.1535 59.0224C25.1961 59.7464 26.1868 60.0707 27.1254 59.9953C28.0641 59.9199 28.8289 59.4567 29.4198 58.6057C29.9043 57.9081 30.0909 57.2139 29.9797 56.5231C29.8609 55.827 29.4474 55.1706 28.7393 54.5539L29.49 53.4729Z" fill="#E74A26"/>
<path d="M32.8844 48.48L34.0489 53.7318L33.0095 54.9796L31.8396 49.6686C31.253 50.2125 30.6394 50.4971 29.9989 50.5223C29.3584 50.5475 28.7226 50.2973 28.0915 49.7717C27.3815 49.1803 27.0163 48.5177 26.9958 47.784C26.9741 47.0371 27.2799 46.2836 27.913 45.5234L30.6549 42.2318L38.3139 48.6114L37.4717 49.6226L34.2015 46.8987L32.8844 48.48ZM33.3409 46.1819L30.6732 43.9597L29.0603 45.896C28.0926 47.0578 28.0534 48.009 28.9427 48.7497C29.8319 49.4904 30.7604 49.2799 31.7281 48.1181L33.3409 46.1819Z" fill="#E74A26"/>
<path d="M41.7019 31.113L48.5161 38.3881L47.5557 39.2878L44.3687 35.8852L40.5267 39.4837L43.7137 42.8863L42.7533 43.7859L35.939 36.5108L36.8995 35.6112L39.742 38.6459L43.5839 35.0473L40.7414 32.0126L41.7019 31.113Z" fill="#E74A26"/>
<path d="M47.4785 26.3612L56.6941 31.8001L55.5377 32.7076L52.7834 30.9895L49.4904 33.5737L50.4824 36.6748L49.3811 37.5391L46.3111 27.2774L47.4785 26.3612ZM51.8268 30.4055L47.6507 27.8278L49.1395 32.5143L51.8268 30.4055Z" fill="#E74A26"/>
<path d="M66.6673 20.9661C67.2201 22.1039 67.3511 23.1738 67.0603 24.176C66.7727 25.1653 66.0969 25.9796 65.0328 26.6188C63.8167 27.3494 62.6123 27.5285 61.4196 27.1562C60.2221 26.7758 59.2124 25.9016 58.3906 24.5335C57.6216 23.2533 57.3384 21.9754 57.541 20.6995C57.7468 19.4109 58.4818 18.3869 59.7459 17.6275C60.65 17.0844 61.5926 16.8503 62.5739 16.925C63.5551 16.9997 64.3453 17.4451 64.9444 18.2611L63.8162 18.9387C63.3518 18.4556 62.8098 18.1878 62.1904 18.1353C61.5661 18.0748 60.9379 18.2344 60.3058 18.614C59.3538 19.186 58.8355 19.9546 58.7512 20.9198C58.6749 21.8802 58.9323 22.8525 59.5235 23.8366C60.1771 24.9247 60.9474 25.627 61.8343 25.9434C62.7212 26.2599 63.6087 26.1514 64.4968 25.6179C65.2249 25.1806 65.68 24.6241 65.8621 23.9485C66.0394 23.2649 65.9318 22.4967 65.5392 21.6437L66.6673 20.9661Z" fill="#E74A26"/>
<path d="M69.775 12.4378L77.6318 19.7028L76.3095 20.3452L73.981 18.0834L70.2159 19.9127L70.5296 23.1534L69.2704 23.7652L68.4402 13.0864L69.775 12.4378ZM73.1695 17.3103L69.633 13.9076L70.097 18.8031L73.1695 17.3103Z" fill="#E74A26"/>
<path d="M80.1732 5.17608C80.2946 5.75894 80.248 6.28074 80.0336 6.74148C79.8245 7.19019 79.4451 7.51886 78.8954 7.72749C78.3631 7.9295 77.8508 7.93425 77.3584 7.74175C76.8715 7.53721 76.4921 7.18204 76.2203 6.67624L76.8879 6.4229C77.3469 7.02737 77.9123 7.20211 78.5842 6.94711C79.23 6.70205 79.5371 6.19615 79.5057 5.42942L80.1732 5.17608ZM78.9845 19.0891L75.4476 9.76967L76.678 9.30273L79.6734 17.1955L79.6996 17.1855L81.2723 7.55916L82.8299 6.96804L86.3667 16.2875L85.1363 16.7544L82.131 8.83551L82.1049 8.84545L80.529 18.503L78.9845 19.0891Z" fill="#E74A26"/>
<path d="M93.1183 3.86862L93.4312 4.97317L90.2118 5.88502L92.6155 14.3712L91.3493 14.7298L88.9456 6.24366L85.7263 7.15551L85.4134 6.05096L93.1183 3.86862Z" fill="#E74A26"/>
<path d="M113.562 5.84712L113.725 6.98348L99.867 8.97194L99.704 7.83558L113.562 5.84712Z" fill="#E74A26"/>
<path d="M122.703 0.0615234L126.958 0.176498C127.872 0.201208 128.622 0.422224 129.209 0.839548C129.804 1.25712 130.09 1.89509 130.067 2.75344C130.054 3.24793 129.907 3.68744 129.625 4.07199C129.354 4.44746 128.992 4.70844 128.54 4.85495C129.152 5.01154 129.615 5.3135 129.93 5.76083C130.254 6.20841 130.407 6.76342 130.389 7.42584C130.338 9.30116 129.054 10.2048 126.534 10.1367L122.434 10.0259L122.703 0.0615234ZM123.961 1.21591L123.875 4.36476L126.241 4.42868C126.511 4.43599 126.74 4.4375 126.927 4.43321C127.123 4.41985 127.343 4.38845 127.588 4.33903C127.832 4.28961 128.025 4.21547 128.168 4.11662C128.32 4.0087 128.45 3.85349 128.558 3.65101C128.676 3.44878 128.739 3.20305 128.746 2.91382C128.754 2.62459 128.714 2.38075 128.626 2.1823C128.538 1.97452 128.431 1.81755 128.303 1.71139C128.175 1.5959 127.995 1.50702 127.764 1.44474C127.541 1.38271 127.337 1.3445 127.151 1.33013C126.974 1.30668 126.741 1.29105 126.452 1.28323L123.961 1.21591ZM123.847 5.40038L123.751 8.95508L126.382 9.02619C126.709 9.03501 126.975 9.03753 127.181 9.03375C127.386 9.02064 127.616 8.98483 127.87 8.92633C128.133 8.86808 128.34 8.78033 128.493 8.66307C128.646 8.53649 128.777 8.35796 128.886 8.12748C128.995 7.88768 129.054 7.59984 129.063 7.26396C129.071 6.98406 129.04 6.74047 128.971 6.5332C128.911 6.32618 128.799 6.15975 128.634 6.03392C128.479 5.90835 128.327 5.80622 128.18 5.72755C128.042 5.64913 127.838 5.59227 127.569 5.55696C127.299 5.52166 127.089 5.50199 126.94 5.49796C126.791 5.4846 126.562 5.47375 126.255 5.46543L123.847 5.40038Z" fill="#E74A26"/>
<path d="M140.231 1.20318L140.107 2.3445L134.553 1.74271L134.217 4.84654L139.409 5.40911L139.29 6.50868L134.098 5.94611L133.727 9.37006L139.35 9.97939L139.226 11.1207L132.295 10.3696L133.369 0.459619L140.231 1.20318Z" fill="#E74A26"/>
<path d="M142.75 1.542L146.78 2.31055C147.779 2.50116 148.528 2.88162 149.028 3.45194C149.529 4.01309 149.687 4.77957 149.501 5.75139C149.125 7.72252 147.823 8.49562 145.596 8.07069L142.941 7.56444L142.175 11.5801L140.883 11.3335L142.75 1.542ZM143.831 2.90249L143.149 6.47803L145.638 6.9528C146.335 7.0857 146.9 7.06052 147.334 6.87726C147.779 6.68658 148.065 6.2566 148.193 5.58733C148.265 5.21144 148.26 4.88749 148.179 4.61547C148.107 4.3452 147.963 4.12774 147.747 3.96309C147.532 3.79844 147.299 3.6733 147.049 3.58766C146.801 3.49286 146.499 3.41136 146.141 3.34316L143.831 2.90249Z" fill="#E74A26"/>
<path d="M160.942 5.84118L158.189 15.4215L156.924 15.0581L158.212 10.5774L153.152 9.12369L151.865 13.6044L150.6 13.241L153.353 3.6606L154.618 4.02403L153.469 8.02033L158.529 9.47405L159.677 5.47775L160.942 5.84118Z" fill="#E74A26"/>
<path d="M164.291 14.8311L163.532 6.65184L164.878 7.16854L165.419 13.8845L170.263 9.23533L171.583 9.74199L165.118 15.7633C164.449 16.3863 163.853 16.7821 163.328 16.9507C162.812 17.1226 162.315 17.1166 161.835 16.9326C161.417 16.7721 161.064 16.5465 160.775 16.2559L161.177 15.2103C161.369 15.4641 161.688 15.6763 162.132 15.8469C162.646 16.0442 163.272 15.7945 164.009 15.0977L164.291 14.8311Z" fill="#E74A26"/>
<path d="M179.131 13.2626L178.641 14.3007L175.616 12.8721L171.85 20.8478L170.66 20.2859L174.426 12.3102L171.4 10.8816L171.89 9.8435L179.131 13.2626Z" fill="#E74A26"/>
<path d="M184.445 24.2481C183.979 25.0569 183.381 25.5527 182.651 25.7355C181.934 25.9148 181.155 25.7622 180.314 25.2778L176.529 23.0978L181.503 14.46L182.644 15.1167L180.625 18.6228L183.269 20.146C184.119 20.6351 184.643 21.2389 184.843 21.9573C185.048 22.6677 184.915 23.4313 184.445 24.2481ZM183.292 23.5844C183.903 22.5249 183.577 21.6318 182.315 20.9051L180.059 19.6055L178.242 22.7598L180.499 24.0594C181.76 24.786 182.692 24.6277 183.292 23.5844Z" fill="#E74A26"/>
<path d="M194.38 30.028C193.562 30.9931 192.636 31.545 191.602 31.6835C190.58 31.8198 189.563 31.5302 188.548 30.8148C187.389 29.9971 186.739 28.9675 186.598 27.726C186.462 26.4769 186.855 25.2002 187.775 23.896C188.635 22.6757 189.69 21.9006 190.939 21.5709C192.201 21.239 193.435 21.498 194.64 22.3479C195.502 22.9558 196.097 23.7237 196.424 24.6516C196.752 25.5795 196.664 26.4822 196.159 27.3597L195.084 26.6012C195.338 25.9812 195.364 25.3773 195.162 24.7893C194.966 24.1937 194.566 23.6835 193.963 23.2585C193.056 22.6183 192.143 22.4545 191.226 22.7671C190.317 23.085 189.531 23.713 188.869 24.6511C188.138 25.6884 187.806 26.6767 187.875 27.6159C187.943 28.5551 188.401 29.3232 189.248 29.9203C189.942 30.4099 190.635 30.6016 191.326 30.4954C192.023 30.3817 192.682 29.9731 193.304 29.2695L194.38 30.028Z" fill="#E74A26"/>
<path d="M199.331 33.4448L194.071 34.5711L192.831 33.5226L198.15 32.3914C197.611 31.8008 197.331 31.1852 197.31 30.5445C197.289 29.9038 197.544 29.2699 198.075 28.6426C198.671 27.937 199.336 27.5766 200.07 27.5614C200.817 27.5452 201.568 27.8564 202.324 28.4951L205.596 31.2608L199.16 38.8733L198.155 38.0237L200.903 34.7734L199.331 33.4448ZM201.626 33.9181L203.868 31.2666L201.943 29.6397C200.788 28.6636 199.837 28.6174 199.09 29.5012C198.343 30.3851 198.547 31.3151 199.702 32.2912L201.626 33.9181Z" fill="#E74A26"/>
<path d="M216.654 42.4045L209.329 49.1657L208.437 48.1987L211.862 45.0365L208.292 41.1685L204.866 44.3307L203.974 43.3637L211.298 36.6025L212.191 37.5695L209.135 40.3899L212.706 44.2578L215.761 41.4375L216.654 42.4045Z" fill="#E74A26"/>
<path d="M221.391 48.2497L215.885 57.4254L214.986 56.2623L216.725 53.5207L214.164 50.2089L211.056 51.1783L210.2 50.0707L220.484 47.0756L221.391 48.2497ZM217.316 52.5684L219.924 48.4111L215.226 49.8658L217.316 52.5684Z" fill="#E74A26"/>
<path d="M226.641 67.4782C225.499 68.0227 224.428 68.1458 223.428 67.8477C222.441 67.5528 221.632 66.871 221.001 65.8022C220.279 64.5807 220.109 63.375 220.49 62.1851C220.879 60.9905 221.761 59.9873 223.135 59.1755C224.421 58.416 225.701 58.1422 226.975 58.3542C228.262 58.5695 229.281 59.312 230.031 60.5816C230.567 61.4897 230.794 62.4341 230.712 63.4147C230.63 64.3954 230.179 65.1822 229.359 65.7753L228.689 64.6422C229.176 64.1813 229.448 63.6414 229.505 63.0223C229.57 62.3985 229.415 61.7691 229.04 61.1343C228.475 60.178 227.71 59.6542 226.746 59.5627C225.786 59.4794 224.812 59.7296 223.823 60.3135C222.73 60.9591 222.023 61.7242 221.7 62.6088C221.377 63.4934 221.479 64.3816 222.005 65.2736C222.437 66.0049 222.991 66.4641 223.665 66.6512C224.347 66.8335 225.116 66.7315 225.972 66.3452L226.641 67.4782Z" fill="#E74A26"/>
<path d="M235.171 70.7133L227.848 78.5159L227.216 77.1889L229.495 74.8773L227.693 71.0986L224.451 71.3883L223.848 70.1246L234.533 69.3737L235.171 70.7133ZM230.274 74.0716L233.703 70.5604L228.804 70.988L230.274 74.0716Z" fill="#E74A26"/>
<path d="M242.368 81.2222C241.784 81.3392 241.263 81.2888 240.804 81.0708C240.357 80.8584 240.031 80.4765 239.826 79.9253C239.628 79.3915 239.628 78.8791 239.824 78.3883C240.032 77.9029 240.39 77.5262 240.898 77.2582L241.146 77.9276C240.538 78.3821 240.359 78.9462 240.609 79.62C240.849 80.2675 241.353 80.5785 242.12 80.5528L242.368 81.2222ZM228.464 79.9291L237.81 76.4623L238.268 77.6962L230.353 80.6322L230.363 80.6584L239.977 82.3034L240.556 83.8654L231.211 87.3321L230.753 86.0983L238.694 83.1525L238.684 83.1263L229.039 81.4779L228.464 79.9291Z" fill="#E74A26"/>
<path d="M243.555 94.1452L242.448 94.4496L241.561 91.2235L233.057 93.5627L232.707 92.2938L241.212 89.9546L240.324 86.7284L241.431 86.4239L243.555 94.1452Z" fill="#E74A26"/>
<path d="M241.403 114.529L240.265 114.683L238.383 100.81L239.521 100.656L241.403 114.529Z" fill="#E74A26"/>
</svg>
