<svg width="17" height="17" fill="none" xmlns="http://www.w3.org/2000/svg"><mask id="a" fill="#fff"><path fill-rule="evenodd" clip-rule="evenodd" d="M.581 10.233V7.069l9.672.001-4.505-4.505L7.982.331l8.32 8.32-8.298 8.297-2.24-2.24 4.475-4.474-9.658-.001z"/></mask><path d="M.58 7.07l.001-.8h-.8v.8h.8zm.001 3.163h-.8v.8h.8v-.8zm9.672-3.163v.8h1.931L10.82 6.505l-.566.565zM5.748 2.565L5.182 2l-.566.566.566.566.566-.566zM7.982.331l.565-.565L7.982-.8l-.566.566.566.565zm8.32 8.32l.565.565.566-.565-.566-.566-.566.566zm0 0l-.566-.566-.566.566.566.565.565-.565zm0 0l.565.565.566-.565-.566-.566-.566.566zm-8.298 8.297l-.566.566.566.566.565-.566-.565-.566zm-2.24-2.24l-.566-.565-.566.566.566.565.566-.565zm4.475-4.474l.565.565 1.366-1.365h-1.931v.8zM-.22 7.069v3.164h1.6V7.069h-1.6zm10.472-.799H.581v1.6h9.672v-1.6zm.566.235L6.314 1.999 5.182 3.131l4.505 4.505 1.132-1.131zM6.314 3.13L8.547.897 7.417-.234 5.181 1.999l1.132 1.132zM7.416.897l8.32 8.32 1.131-1.132-8.32-8.32L7.417.898zm8.32 7.188l1.131 1.131-1.131-1.13zm1.131 0l-1.131 1.131 1.131-1.13zm-8.298 9.43l8.298-8.299-1.131-1.13-8.298 8.297 1.131 1.131zm-3.37-2.24l2.239 2.24 1.131-1.132-2.24-2.24-1.13 1.131zm4.474-5.607l-4.475 4.475 1.132 1.131 4.474-4.475-1.131-1.131zM.581 11.033h9.658v-1.6H.58v1.6z" fill="#E74A26" mask="url(#a)"/></svg>