<svg width="40" height="40" fill="none" xmlns="http://www.w3.org/2000/svg"><path d="M40 0v7.092c-.075-.05-.125-.1-.175-.126-2.255-2.271-4.484-4.543-6.738-6.84-.025-.05-.075-.076-.1-.126H40zM0 20.417C.1 14.99 1.728 10.37 5.285 6.535 8.44 3.127 12.348 1.083 16.907.376 22.04-.432 26.8.628 31.158 3.531c.902.606 1.102 1.691.501 2.6-.526.757-1.352.959-2.129.429a21.496 21.496 0 00-2.98-1.666C16.28.426 5.636 7.19 3.707 17.009 2.354 23.9 5.61 31.043 11.772 34.627c1.628.934 3.356 1.615 5.21 1.968.902.177 1.453.934 1.377 1.893-.075.833-.776 1.515-1.653 1.49-.55-.026-1.127-.152-1.678-.278C7.59 37.782 1.904 31.724.401 24.127c-.1-.48-.176-.985-.226-1.49-.1-.807-.125-1.615-.175-2.22zm39.875-.175c.025 9.44-6.512 17.618-15.654 19.637-.426.101-.877.152-1.278.101-.827-.1-1.403-.833-1.378-1.64 0-.884.551-1.54 1.378-1.717 2.855-.58 5.41-1.767 7.64-3.66 3.256-2.75 5.21-6.26 5.76-10.5.551-4.265-.45-8.177-2.78-11.761-.25-.354-.45-.732-.376-1.187.126-.732.601-1.135 1.253-1.363.676-.227 1.277-.075 1.803.43.15.151.276.353.4.555 1.78 2.726 2.806 5.73 3.157 8.985.025.354.075.707.1 1.06 0 .329-.025.707-.025 1.06z" fill="#fff"/><path d="M20.138 33.746c-5.886-.05-11.096-3.938-12.9-9.617-.35-1.135.226-1.918 1.078-2.196 1.002-.328 1.878.152 2.229 1.187 1.002 3.104 3.005 5.3 6.011 6.486 5.26 2.045 11.221-.908 12.924-6.385.451-1.49 1.854-1.565 2.68-1.06.652.403.927 1.06.702 1.817a13.422 13.422 0 01-2.555 4.795c-2.054 2.474-4.634 4.09-7.765 4.695-.826.126-1.628.177-2.404.278zm-.226-26.982c5.861.076 11.021 3.887 12.85 9.49.375 1.187-.251 1.944-1.027 2.197-1.002.328-1.93-.127-2.255-1.162-.776-2.347-2.179-4.19-4.258-5.502-5.41-3.432-12.649-.732-14.627 5.452-.4 1.262-1.478 1.49-2.28 1.212-.926-.303-1.352-1.111-1.051-2.045a13.74 13.74 0 012.48-4.619c2.053-2.499 4.658-4.14 7.864-4.745.726-.151 1.528-.202 2.304-.278z" fill="#E74A26"/><path d="M20.038 13.453c3.13 0 5.986 2.448 6.487 5.603.075.505.125 1.01.075 1.515-.075.883-.902 1.463-1.803 1.413-.952-.076-1.578-.707-1.603-1.64-.025-1.465-.652-2.525-1.98-3.13-.55-.253-1.151-.328-1.777-.278-.802.076-1.478-.379-1.754-1.186-.25-.758.05-1.54.727-1.944.526-.328 1.077-.353 1.628-.353zm-.076 13.478c-3.206-.025-6.036-2.423-6.562-5.629a6.87 6.87 0 01-.1-1.236c0-1.136 1.052-1.843 2.204-1.515.751.202 1.202.783 1.227 1.59.075 2.07 1.628 3.509 3.682 3.332 1.002-.076 1.753.732 1.854 1.54.1.959-.551 1.767-1.528 1.893-.25 0-.526 0-.777.025z" fill="#E74A26"/></svg>