<svg width="280" height="103" viewBox="0 0 280 103" fill="none" xmlns="http://www.w3.org/2000/svg">
<path d="M279.5 31.5C279.5 33.5137 278.595 35.5223 276.786 37.5119C274.974 39.5044 272.277 41.4504 268.763 43.3198C261.736 47.0581 251.534 50.4401 238.885 53.2861C213.596 58.9762 178.634 62.5 140 62.5C101.366 62.5 66.4042 58.9762 41.1148 53.2861C28.4661 50.4401 18.2642 47.0581 11.2367 43.3198C7.72254 41.4504 5.0263 39.5044 3.2142 37.5119C1.40469 35.5223 0.5 33.5137 0.5 31.5C0.5 29.4863 1.40469 27.4777 3.2142 25.4881C5.0263 23.4956 7.72254 21.5496 11.2367 19.6802C18.2642 15.9419 28.4661 12.5599 41.1148 9.71394C66.4042 4.02383 101.366 0.5 140 0.5C178.634 0.5 213.596 4.02383 238.885 9.71394C251.534 12.5599 261.736 15.9419 268.763 19.6802C272.277 21.5496 274.974 23.4956 276.786 25.4881C278.595 27.4777 279.5 29.4863 279.5 31.5Z" stroke="white"/>
<path d="M279.5 51.5C279.5 53.5137 278.595 55.5223 276.786 57.5119C274.974 59.5044 272.277 61.4504 268.763 63.3198C261.736 67.0581 251.534 70.4401 238.885 73.2861C213.596 78.9762 178.634 82.5 140 82.5C101.366 82.5 66.4042 78.9762 41.1148 73.2861C28.4661 70.4401 18.2642 67.0581 11.2367 63.3198C7.72254 61.4504 5.0263 59.5044 3.2142 57.5119C1.40469 55.5223 0.5 53.5137 0.5 51.5C0.5 49.4863 1.40469 47.4777 3.2142 45.4881C5.0263 43.4956 7.72254 41.5496 11.2367 39.6802C18.2642 35.9419 28.4661 32.5599 41.1148 29.7139C66.4042 24.0238 101.366 20.5 140 20.5C178.634 20.5 213.596 24.0238 238.885 29.7139C251.534 32.5599 261.736 35.9419 268.763 39.6802C272.277 41.5496 274.974 43.4956 276.786 45.4881C278.595 47.4777 279.5 49.4863 279.5 51.5Z" stroke="white"/>
<path d="M279.5 71.5C279.5 73.5137 278.595 75.5223 276.786 77.5119C274.974 79.5044 272.277 81.4504 268.763 83.3198C261.736 87.0581 251.534 90.4401 238.885 93.2861C213.596 98.9762 178.634 102.5 140 102.5C101.366 102.5 66.4042 98.9762 41.1148 93.2861C28.4661 90.4401 18.2642 87.0581 11.2367 83.3198C7.72254 81.4504 5.0263 79.5044 3.2142 77.5119C1.40469 75.5223 0.5 73.5137 0.5 71.5C0.5 69.4863 1.40469 67.4777 3.2142 65.4881C5.0263 63.4956 7.72254 61.5496 11.2367 59.6802C18.2642 55.9419 28.4661 52.5599 41.1148 49.7139C66.4042 44.0238 101.366 40.5 140 40.5C178.634 40.5 213.596 44.0238 238.885 49.7139C251.534 52.5599 261.736 55.9419 268.763 59.6802C272.277 61.5496 274.974 63.4956 276.786 65.4881C278.595 67.4777 279.5 69.4863 279.5 71.5Z" stroke="white"/>
<path d="M70 68L71.1803 74.3673L75.8779 69.9098L73.0902 75.7549L79.5106 74.9098L73.8197 78L79.5106 81.0902L73.0902 80.2451L75.8779 86.0902L71.1803 81.6327L70 88L68.8197 81.6327L64.1221 86.0902L66.9098 80.2451L60.4894 81.0902L66.1803 78L60.4894 74.9098L66.9098 75.7549L64.1221 69.9098L68.8197 74.3673L70 68Z" fill="#E74A26"/>
<path d="M241.5 1.44077L244.137 8.56747L244.217 8.7831L244.433 8.86288L251.559 11.5L244.433 14.1371L244.217 14.2169L244.137 14.4325L241.5 21.5592L238.863 14.4325L238.783 14.2169L238.567 14.1371L231.441 11.5L238.567 8.86288L238.783 8.7831L238.863 8.56747L241.5 1.44077Z" fill="white" stroke="white"/>
</svg>
