<svg width="2370" height="1950" viewBox="0 0 2370 1950" fill="none" xmlns="http://www.w3.org/2000/svg">
<path fill-rule="evenodd" clip-rule="evenodd" d="M591.299 0.073737C660.866 0.744602 1775.98 9.91829 1775.98 9.91829C1775.98 9.91829 1834.74 -12.3294 1922.28 128.38L2103.65 450.317L2347.11 883.322C2347.11 883.322 2391.14 957.647 2356.86 1038.07C2322.55 1118.45 2143.23 1430.03 2143.23 1430.03L1878.61 1880.12C1878.61 1880.12 1847.86 1950.28 1778.36 1949.72C1708.6 1949.09 619.351 1940.14 619.351 1940.14C619.351 1940.14 559.925 1942.59 512.777 1879.91C465.629 1817.2 287.85 1502.73 287.85 1502.73L26.1973 1055.53C26.1973 1055.53 -39.797 985.277 38.9126 853.351C117.607 721.393 483.509 94.6344 483.509 94.6344C483.509 94.6344 521.592 -0.425511 591.299 0.073737Z" fill="white"/>
<path fill-rule="evenodd" clip-rule="evenodd" d="M1601.11 1393.08L1668.51 574.755H1874.49L1970.78 1393.08H1847.56L1834.1 1210.16H1741.68L1730.13 1393.08H1601.11V1393.08ZM1778.18 702.048L1743.53 1102.55H1826.36L1778.18 702.048ZM871.44 1393.08L948.465 574.755H1146.78L1241.12 1393.08H1117.9L1110.19 1212.08H1010.07L998.53 1393.08H871.44V1393.08ZM1052.53 715.512L1019.79 1102.55H1096.82L1052.53 715.512V715.512ZM451.588 574.755V1393.08H570.971V898.221L655.687 1393.08H821.265V574.755L694.191 576.689V982.953L624.874 574.755H451.588Z" fill="#1A3B73"/>
<mask id="mask0" style="mask-type:alpha" maskUnits="userSpaceOnUse" x="0" y="0" width="2370" height="1950">
<path fill-rule="evenodd" clip-rule="evenodd" d="M591.299 0.073737C660.866 0.744602 1775.98 9.91829 1775.98 9.91829C1775.98 9.91829 1834.74 -12.3294 1922.28 128.38L2103.65 450.317L2347.11 883.322C2347.11 883.322 2391.14 957.647 2356.86 1038.07C2322.55 1118.45 2143.23 1430.03 2143.23 1430.03L1878.61 1880.12C1878.61 1880.12 1847.86 1950.28 1778.36 1949.72C1708.6 1949.09 619.351 1940.14 619.351 1940.14C619.351 1940.14 559.925 1942.59 512.777 1879.91C465.629 1817.2 287.85 1502.73 287.85 1502.73L26.1973 1055.53C26.1973 1055.53 -39.797 985.277 38.9126 853.351C117.607 721.393 483.509 94.6344 483.509 94.6344C483.509 94.6344 521.592 -0.425511 591.299 0.073737Z" fill="white"/>
</mask>
<g mask="url(#mask0)">
<path fill-rule="evenodd" clip-rule="evenodd" d="M272 444.046H2103.68L2080 361C2024.15 274.349 2001.64 214.984 1940 111C1882.26 14.7387 1795.64 -10.3481 1676.27 -10.3481H614C498.486 -10.3481 505.632 26.2374 451.713 109.019C411.289 172.564 363.143 280.386 320.785 351.622L272 444.046ZM278.505 1517.18L328.57 1601.91C365.14 1663.51 420.993 1771.34 467.205 1842.6C536.507 1950.4 571.173 1967.74 694.394 1967.74H1734.08C1845.75 1967.74 1886.19 1923.46 1938.18 1832.95C1978.62 1765.57 2022.92 1673.15 2061.4 1605.75L2111.46 1517.18H278.505Z" fill="#ECB73A"/>
<path fill-rule="evenodd" clip-rule="evenodd" d="M2038.29 494.127L2040.21 1474.17H2132.63L2323.24 1125.66C2371.38 1039.02 2377.14 1027.46 2377.14 979.333C2377.14 933.122 2399.82 921.115 2344 821L2144 494.127H2038.29ZM244.04 493.97L29.9996 815C-12.3584 890.106 -16 925.162 -16 981C-16 1032.98 9.1443 1040.79 55.3403 1121.67L255.586 1468.25H336.448V493.97H244.04Z" fill="#ECB73A"/>
</g>
<path fill-rule="evenodd" clip-rule="evenodd" d="M1283.62 574.755H1445.36C1539.7 574.755 1587.85 607.502 1589.76 705.698L1593.6 930.968C1593.6 1029.16 1555.08 1098.48 1456.9 1098.48C1447.28 1098.48 1431.88 1096.55 1410.71 1094.61V1393.08H1283.62V574.755ZM1472.1 671.094H1410.49V998.398C1470.18 998.398 1474.02 988.788 1474.02 944.495L1472.1 671.094Z" fill="#1A3B73"/>
</svg>
