<svg xmlns="http://www.w3.org/2000/svg" xmlns:xlink="http://www.w3.org/1999/xlink"><symbol id="icon-round" viewBox="0 0 238 238">
<path d="M120.473 153.527L111.138 144.192L145.727 109.603L155.062 118.938L120.473 153.527Z" fill="#C4C4C4"/>
<path d="M89.5382 125.539L89.5223 112.353L143.047 112.418L143.063 125.603L89.5382 125.539Z" fill="#C4C4C4"/>
<path d="M111.077 93.5776L120.39 84.2651L155.062 118.938L145.75 128.25L111.077 93.5776Z" fill="#C4C4C4"/>
<path d="M228.991 122.987L237.576 119.188L237.506 120.834L230.427 123.865L237.226 127.42L237.158 129.035L228.282 124.222C227.364 123.724 226.718 123.221 226.344 122.714C225.97 122.218 225.796 121.677 225.821 121.091C225.842 120.579 225.958 120.114 226.168 119.696L227.447 119.75C227.242 120.051 227.128 120.474 227.105 121.017C227.078 121.646 227.576 122.233 228.599 122.778L228.991 122.987Z" fill="white"/>
<path d="M227.823 138.314C227.453 138.264 227.079 138.127 226.7 137.903C226.332 137.681 225.985 137.381 225.66 137.003C225.334 136.626 225.095 136.125 224.943 135.501C224.791 134.878 224.765 134.191 224.867 133.441C225.059 132.024 225.547 130.933 226.329 130.167C227.12 129.413 228.171 129.125 229.481 129.303L229.286 130.746C228.319 130.647 227.573 130.874 227.046 131.427C226.529 131.981 226.204 132.75 226.071 133.733C225.963 134.526 226.09 135.216 226.452 135.803C226.814 136.39 227.349 136.732 228.057 136.828C228.448 136.881 228.791 136.852 229.086 136.742C229.381 136.631 229.616 136.442 229.792 136.175C229.968 135.909 230.104 135.62 230.2 135.31C230.295 135.011 230.37 134.655 230.426 134.243C230.475 133.884 230.51 133.544 230.532 133.224L231.768 133.392C231.724 133.558 231.668 133.895 231.599 134.402C231.377 136.041 231.942 136.951 233.295 137.135C234.5 137.299 235.212 136.572 235.432 134.954C235.664 133.242 235.025 132.203 233.513 131.836L233.709 130.394C234.866 130.594 235.687 131.125 236.173 131.987C236.67 132.851 236.833 133.912 236.662 135.17C236.506 136.322 236.126 137.218 235.522 137.857C234.917 138.507 234.108 138.763 233.093 138.625C232.522 138.548 232.029 138.293 231.614 137.86C231.21 137.428 230.968 136.949 230.889 136.421L230.842 136.415C230.607 137.115 230.209 137.626 229.649 137.948C229.087 138.281 228.478 138.403 227.823 138.314Z" fill="white"/>
<path d="M233 151.708L221.94 148.98L222.3 147.519L227.473 148.796L228.913 142.955L223.741 141.679L224.101 140.218L235.161 142.947L234.801 144.407L230.187 143.269L228.746 149.11L233.36 150.248L233 151.708Z" fill="white"/>
<path d="M230.346 159.631L218.122 159.977L218.688 158.395L222.398 158.381L224.011 153.878L221.165 151.481L221.704 149.975L230.918 158.034L230.346 159.631ZM223.679 158.364L229.287 158.317L224.995 154.689L223.679 158.364Z" fill="white"/>
<path d="M224.396 173.385L223.209 172.824L224.842 169.367L215.727 165.063L216.369 163.703L225.484 168.007L227.117 164.549L228.303 165.109L224.396 173.385Z" fill="white"/>
<path d="M211.919 178.971C211 178.429 210.441 177.739 210.242 176.903C210.046 176.081 210.23 175.192 210.794 174.237L213.333 169.939L223.142 175.733L222.377 177.028L218.396 174.676L216.622 177.68C216.052 178.644 215.355 179.236 214.532 179.456C213.717 179.681 212.846 179.519 211.919 178.971ZM212.692 177.663C213.895 178.373 214.92 178.012 215.766 176.58L217.28 174.017L213.698 171.901L212.184 174.464C211.338 175.896 211.507 176.963 212.692 177.663Z" fill="white"/>
<path d="M209.963 187.603L207.601 190.591C206.907 191.469 206.137 191.962 205.291 192.068C204.445 192.175 203.6 191.894 202.755 191.226C201.918 190.564 201.457 189.805 201.372 188.95C201.289 188.109 201.592 187.253 202.28 186.383L205.574 182.216L214.511 189.282L209.668 195.406L208.639 194.593L212.549 189.648L209.963 187.603ZM203.688 190.046C204.784 190.912 205.848 190.693 206.88 189.388L208.934 186.79L205.671 184.21L203.617 186.808C202.585 188.113 202.608 189.192 203.688 190.046Z" fill="white"/>
<path d="M203.845 202.127C202.632 203.358 201.302 203.933 199.853 203.853C198.412 203.78 197.068 203.13 195.822 201.902C194.569 200.667 193.869 199.31 193.722 197.833C193.576 196.356 194.113 194.998 195.333 193.76C195.955 193.129 196.626 192.675 197.348 192.399C198.07 192.122 198.79 192.022 199.507 192.1C200.217 192.186 200.912 192.399 201.594 192.741C202.267 193.091 202.904 193.561 203.505 194.153C204.773 195.403 205.439 196.749 205.503 198.189C205.558 199.637 205.006 200.949 203.845 202.127ZM202.911 201.206C203.802 200.302 204.168 199.292 204.009 198.177C203.85 197.077 203.304 196.066 202.369 195.145C201.351 194.142 200.287 193.595 199.178 193.505C198.069 193.431 197.091 193.822 196.245 194.681C195.406 195.532 195.04 196.511 195.146 197.619C195.252 198.727 195.811 199.779 196.821 200.775C197.824 201.763 198.88 202.295 199.989 202.37C201.091 202.452 202.065 202.064 202.911 201.206Z" fill="white"/>
<path d="M190.713 213.457L183.486 204.651L184.648 203.697L191.043 211.489L194.296 208.819L190.399 203.718C189.674 202.767 189.261 201.878 189.161 201.049C189.052 200.228 189.32 199.553 189.963 199.025C190.227 198.809 190.554 198.636 190.946 198.508L191.758 199.498C191.558 199.523 191.314 199.655 191.026 199.892C190.787 200.088 190.641 200.297 190.589 200.519C190.535 200.756 190.617 201.117 190.835 201.601C191.044 202.091 191.431 202.698 191.997 203.42L196.241 208.92L190.713 213.457Z" fill="white"/>
<path d="M176.489 213.484C175.897 212.597 175.692 211.733 175.875 210.893C176.055 210.067 176.606 209.347 177.529 208.731L181.681 205.959L188.006 215.433L186.755 216.269L184.188 212.423L181.287 214.36C180.356 214.981 179.471 215.213 178.634 215.054C177.802 214.903 177.088 214.38 176.489 213.484ZM177.754 212.64C178.529 213.802 179.609 213.921 180.993 212.997L183.468 211.345L181.158 207.885L178.683 209.538C177.299 210.462 176.99 211.496 177.754 212.64Z" fill="white"/>
<path d="M172.952 211.867L177.968 222.095L176.618 222.757L172.179 213.707L167.64 215.933L172.078 224.983L170.728 225.646L166.289 216.596L161.75 218.822L166.189 227.872L164.838 228.534L159.822 218.306L172.952 211.867Z" fill="white"/>
<path d="M153.284 232.54L152.861 231.298L158.902 229.236L157.75 225.859L152.102 227.787L151.694 226.591L157.342 224.663L156.07 220.938L149.953 223.026L149.529 221.784L157.07 219.211L160.75 229.992L153.284 232.54Z" fill="white"/>
<path d="M126.645 231.233L126.464 229.934L142.31 227.722L142.492 229.021L126.645 231.233Z" fill="white"/>
<path d="M113.934 228.943L117.667 237.557L116.021 237.474L113.046 230.372L109.437 237.143L107.824 237.062L112.705 228.224C113.21 227.31 113.717 226.668 114.227 226.298C114.727 225.928 115.269 225.758 115.855 225.787C116.366 225.813 116.83 225.932 117.247 226.145L117.183 227.424C116.883 227.216 116.462 227.099 115.919 227.072C115.29 227.04 114.699 227.534 114.146 228.553L113.934 228.943Z" fill="white"/>
<path d="M98.4857 227.584C98.5401 227.215 98.6813 226.842 98.9093 226.466C99.1357 226.1 99.4396 225.757 99.8212 225.436C100.203 225.115 100.706 224.881 101.331 224.736C101.957 224.591 102.644 224.574 103.393 224.684C104.807 224.893 105.892 225.393 106.649 226.183C107.394 226.983 107.67 228.037 107.477 229.346L106.036 229.134C106.146 228.169 105.928 227.419 105.381 226.886C104.833 226.363 104.068 226.029 103.087 225.885C102.295 225.768 101.604 225.887 101.012 226.242C100.421 226.597 100.073 227.128 99.9689 227.835C99.9114 228.225 99.9362 228.569 100.044 228.865C100.151 229.161 100.337 229.399 100.602 229.578C100.866 229.757 101.153 229.896 101.462 229.996C101.76 230.094 102.115 230.173 102.526 230.233C102.885 230.286 103.225 230.326 103.544 230.351L103.362 231.586C103.196 231.54 102.86 231.479 102.354 231.405C100.718 231.164 99.8008 231.719 99.6017 233.069C99.4243 234.272 100.143 234.993 101.758 235.231C103.467 235.483 104.514 234.855 104.898 233.349L106.338 233.561C106.125 234.715 105.584 235.531 104.716 236.006C103.846 236.493 102.784 236.643 101.528 236.458C100.378 236.289 99.4865 235.899 98.8541 235.288C98.2112 234.676 97.9644 233.863 98.1138 232.85C98.1978 232.28 98.4586 231.79 98.8964 231.38C99.3327 230.981 99.8149 230.745 100.343 230.672L100.35 230.624C99.6529 230.381 99.1463 229.978 98.8305 229.414C98.5042 228.848 98.3892 228.238 98.4857 227.584Z" fill="white"/>
<path d="M85.3471 232.692L88.1595 221.652L89.6169 222.023L88.3016 227.187L94.1314 228.672L95.4467 223.509L96.9041 223.88L94.0918 234.919L92.6343 234.548L93.8075 229.943L87.9777 228.458L86.8045 233.063L85.3471 232.692Z" fill="white"/>
<path d="M77.2749 229.884L77.0667 217.657L78.6418 218.241L78.6138 221.951L83.0991 223.615L85.5273 220.795L87.0274 221.352L78.8651 230.474L77.2749 229.884ZM78.6165 223.232L78.6008 228.84L82.2767 224.589L78.6165 223.232Z" fill="white"/>
<path d="M63.7693 223.883L64.3382 222.701L67.7839 224.359L72.1553 215.276L73.5105 215.928L69.1392 225.011L72.5849 226.67L72.0159 227.852L63.7693 223.883Z" fill="white"/>
<path d="M58.189 211.266C58.7416 210.354 59.4372 209.802 60.2759 209.612C61.0999 209.425 61.9863 209.619 62.9351 210.194L67.2049 212.78L61.3028 222.524L60.0164 221.745L62.412 217.79L59.4287 215.983C58.4707 215.402 57.8864 214.699 57.6759 213.873C57.4598 213.057 57.6308 212.188 58.189 211.266ZM59.4891 212.054C58.7651 213.249 59.1148 214.277 60.538 215.139L63.0835 216.681L65.2387 213.123L62.6933 211.581C61.27 210.719 60.202 210.877 59.4891 212.054Z" fill="white"/>
<path d="M49.6301 209.26L46.669 206.866C45.7981 206.162 45.314 205.386 45.2168 204.539C45.1196 203.693 45.4097 202.85 46.0871 202.013C46.7578 201.183 47.5214 200.731 48.3781 200.655C49.2197 200.581 50.0719 200.893 50.9345 201.591L55.0651 204.931L47.9024 213.789L41.8308 208.88L42.6558 207.859L47.5578 211.823L49.6301 209.26ZM47.2566 202.958C46.378 204.045 46.5857 205.111 47.8796 206.157L50.4551 208.24L53.0707 205.005L50.4953 202.923C49.2013 201.876 48.1218 201.888 47.2566 202.958Z" fill="white"/>
<path d="M35.2984 203.119C34.0765 201.897 33.5108 200.562 33.6013 199.114C33.6843 197.673 34.3442 196.335 35.5812 195.098C36.8257 193.853 38.1871 193.163 39.6655 193.027C41.1438 192.891 42.4977 193.438 43.7271 194.668C44.3531 195.294 44.8019 195.969 45.0734 196.693C45.3449 197.417 45.4392 198.137 45.3563 198.854C45.2657 199.563 45.047 200.257 44.7001 200.936C44.3456 201.607 43.8704 202.24 43.2745 202.836C42.0149 204.096 40.6648 204.752 39.2242 204.805C37.7761 204.85 36.4675 204.288 35.2984 203.119ZM36.2261 202.191C37.1236 203.089 38.1306 203.462 39.2469 203.311C40.3481 203.161 41.3625 202.621 42.2902 201.694C43.3009 200.683 43.8553 199.623 43.9534 198.514C44.0363 197.406 43.6517 196.425 42.7994 195.573C41.9546 194.728 40.9779 194.355 39.8691 194.453C38.7604 194.551 37.7044 195.101 36.7013 196.105C35.7057 197.1 35.1664 198.152 35.0834 199.261C34.9929 200.362 35.3738 201.339 36.2261 202.191Z" fill="white"/>
<path d="M24.0215 189.799L32.906 182.668L33.8474 183.841L25.9861 190.15L28.62 193.432L33.764 189.591C34.7224 188.877 35.6163 188.474 36.4458 188.382C37.2686 188.283 37.9403 188.557 38.4611 189.206C38.6747 189.473 38.8435 189.802 38.9674 190.195L37.9691 190.996C37.9455 190.796 37.8168 190.551 37.5832 190.26C37.3895 190.018 37.1819 189.87 36.9603 189.816C36.7236 189.76 36.3623 189.838 35.8762 190.05C35.3834 190.254 34.7726 190.635 34.0438 191.192L28.4981 195.376L24.0215 189.799Z" fill="white"/>
<path d="M24.1597 175.617C25.0533 175.035 25.9192 174.84 26.7575 175.032C27.581 175.221 28.2956 175.78 28.9014 176.709L31.6273 180.891L22.0838 187.112L21.2625 185.852L25.1362 183.327L23.2315 180.405C22.6199 179.467 22.3983 178.58 22.5667 177.744C22.7262 176.914 23.2572 176.205 24.1597 175.617ZM24.9897 176.891C23.8191 177.654 23.6882 178.732 24.5968 180.126L26.2219 182.619L29.7069 180.348L28.0818 177.854C27.1732 176.46 26.1425 176.139 24.9897 176.891Z" fill="white"/>
<path d="M25.8888 172.244L15.6238 177.185L14.9715 175.829L24.0544 171.458L21.8617 166.902L12.7789 171.274L12.1267 169.918L21.2095 165.547L19.0169 160.991L9.93406 165.363L9.28183 164.007L19.5469 159.067L25.8888 172.244Z" fill="white"/>
<path d="M5.37729 152.456L6.62212 152.041L8.63854 158.098L12.0239 156.971L10.1389 151.309L11.3382 150.91L13.2232 156.572L16.9577 155.329L14.916 149.196L16.1608 148.781L18.6776 156.342L7.86875 159.94L5.37729 152.456Z" fill="white"/>
<path d="M6.89109 125.891L8.19185 125.72L10.2818 141.583L8.98109 141.754L6.89109 125.891Z" fill="white"/>
<path d="M9.26245 113.058L0.605835 116.691L0.707504 115.046L7.84359 112.153L1.11418 108.467L1.21388 106.854L9.99518 111.837C10.9038 112.353 11.5399 112.868 11.9035 113.382C12.2678 113.885 12.4319 114.43 12.3957 115.015C12.3641 115.526 12.2393 115.989 12.0214 116.403L10.7438 116.324C10.9545 116.027 11.0767 115.607 11.1102 115.064C11.149 114.436 10.6623 113.839 9.64984 113.274L9.26245 113.058Z" fill="white"/>
<path d="M10.7053 97.8844C11.0742 97.9416 11.4458 98.0857 11.8202 98.3165C12.184 98.5457 12.525 98.8523 12.8432 99.2363C13.1614 99.6204 13.3906 100.126 13.5308 100.752C13.6711 101.378 13.6831 102.065 13.5669 102.814C13.3477 104.226 12.8397 105.308 12.0431 106.058C11.2376 106.797 10.1814 107.065 8.87437 106.862L9.09774 105.423C10.0618 105.54 10.8127 105.328 11.3503 104.785C11.8773 104.241 12.217 103.478 12.3692 102.498C12.4919 101.708 12.3781 101.015 12.0277 100.421C11.6774 99.8272 11.1491 99.4753 10.4429 99.3656C10.0529 99.3051 9.70946 99.3273 9.4125 99.4324C9.11554 99.5374 8.87646 99.7215 8.69525 99.9849C8.51404 100.248 8.37254 100.534 8.27075 100.842C8.17059 101.139 8.0886 101.494 8.02478 101.905C7.96914 102.263 7.92732 102.602 7.89931 102.922L6.66608 102.73C6.71334 102.565 6.77625 102.229 6.8548 101.723C7.10844 100.089 6.56067 99.1677 5.2115 98.9583C4.0099 98.7717 3.28391 99.4848 3.03354 101.097C2.76844 102.805 3.3878 103.856 4.89161 104.252L4.66825 105.691C3.51535 105.468 2.70431 104.922 2.23514 104.05C1.75544 103.177 1.61295 102.113 1.80768 100.859C1.98604 99.7097 2.38302 98.8214 2.99859 98.1937C3.61581 97.5555 4.43036 97.315 5.44223 97.4721C6.01141 97.5604 6.49926 97.8251 6.90576 98.266C7.30172 98.7053 7.53421 99.1893 7.60323 99.7182L7.65067 99.7255C7.89897 99.0301 8.30636 98.5266 8.87284 98.2151C9.44097 97.8932 10.0518 97.7829 10.7053 97.8844Z" fill="white"/>
<path d="M5.78459 84.3544L16.7912 87.2923L16.4034 88.7455L11.2556 87.3714L9.70409 93.1839L14.8519 94.558L14.464 96.0111L3.45734 93.0731L3.84521 91.62L8.43647 92.8455L9.98797 87.033L5.39672 85.8075L5.78459 84.3544Z" fill="white"/>
<path d="M8.5039 76.6929L20.7329 76.5764L20.1368 78.1471L16.4273 78.0913L14.7298 82.564L17.5311 85.0133L16.9633 86.5092L7.90214 78.2786L8.5039 76.6929ZM15.1464 78.0844L9.53797 78.0266L13.7612 81.7343L15.1464 78.0844Z" fill="white"/>
<path d="M14.736 62.9502L15.9118 63.5323L14.2152 66.9593L23.2488 71.4316L22.5815 72.7794L13.5479 68.3072L11.8513 71.7342L10.6755 71.1521L14.736 62.9502Z" fill="white"/>
<path d="M27.4793 57.3371C28.3855 57.8998 28.9292 58.6014 29.1103 59.4421C29.288 60.2681 29.0842 61.1523 28.4991 62.0948L25.8658 66.3358L16.1877 60.3266L16.981 59.0488L20.9094 61.488L22.7493 58.5247C23.3401 57.5732 24.0495 56.9967 24.8777 56.7953C25.6969 56.5882 26.564 56.7688 27.4793 57.3371ZM26.6775 58.6284C25.4904 57.8914 24.458 58.2296 23.5802 59.6433L22.0104 62.1716L25.5446 64.366L27.1144 61.8377C27.9921 60.424 27.8465 59.3543 26.6775 58.6284Z" fill="white"/>
<path d="M29.1947 49.2448L31.6105 46.3012C32.3211 45.4354 33.1 44.957 33.9475 44.866C34.795 44.7749 35.6351 45.0712 36.4679 45.7546C37.2924 46.4313 37.7393 47.1983 37.8086 48.0554C37.8763 48.8976 37.5584 49.7474 36.8546 50.605L33.4847 54.7112L24.6786 47.4841L29.632 41.4485L30.6462 42.2808L26.6469 47.1538L29.1947 49.2448ZM35.5137 46.9172C34.4336 46.0307 33.3657 46.2307 32.31 47.5169L30.2089 50.0771L33.4246 52.7162L35.5257 50.156C36.5814 48.8698 36.5774 47.7902 35.5137 46.9172Z" fill="white"/>
<path d="M35.6816 34.6669C36.9168 33.4584 38.2579 32.9073 39.705 33.0136C41.1446 33.1122 42.4761 33.7867 43.6995 35.0371C44.9304 36.2951 45.6056 37.664 45.7253 39.1437C45.8449 40.6234 45.2834 41.9712 44.0406 43.1872C43.4078 43.8064 42.7279 44.2477 42.0009 44.5114C41.2739 44.775 40.5526 44.8614 39.837 44.7706C39.1291 44.6724 38.4376 44.4461 37.7626 44.0918C37.0952 43.73 36.4669 43.248 35.8775 42.6456C34.6317 41.3724 33.9903 40.0152 33.9532 38.5741C33.9237 37.1256 34.4999 35.8231 35.6816 34.6669ZM36.5992 35.6046C35.6919 36.4924 35.3076 37.4952 35.4463 38.613C35.5851 39.7158 36.1133 40.7361 37.0309 41.6739C38.0305 42.6955 39.0841 43.2614 40.1917 43.3715C41.2995 43.4666 42.2841 43.0926 43.1457 42.2497C43.9996 41.4142 44.3836 40.4415 44.2976 39.3318C44.2117 38.222 43.6726 37.1602 42.6804 36.1461C41.6957 35.1397 40.6495 34.589 39.5417 34.494C38.4416 34.3915 37.4607 34.7617 36.5992 35.6046Z" fill="white"/>
<path d="M49.3089 23.3365L56.3418 32.2984L55.1586 33.2269L48.9357 25.2972L45.6253 27.895L49.4101 33.0806C50.114 34.0468 50.5071 34.9451 50.5893 35.7755C50.6799 36.5993 50.3979 37.268 49.7434 37.7817C49.4749 37.9924 49.1435 38.1576 48.7492 38.2771L47.959 37.2702C48.1591 37.2487 48.406 37.1228 48.6997 36.8923C48.943 36.7013 49.0932 36.4953 49.1503 36.2743C49.2091 36.0383 49.135 35.6761 48.928 35.1877C48.7294 34.6927 48.3554 34.0778 47.8058 33.343L43.6825 27.7519L49.3089 23.3365Z" fill="white"/>
<path d="M63.4797 23.6205C64.0523 24.5204 64.238 25.3884 64.0367 26.2245C63.8386 27.0458 63.2716 27.7543 62.3357 28.3498L58.124 31.0296L52.0085 21.4182L53.2774 20.6108L55.7597 24.5121L58.7025 22.6396C59.6475 22.0384 60.5367 21.8266 61.3704 22.0042C62.1983 22.1727 62.9014 22.7115 63.4797 23.6205ZM62.1973 24.4364C61.4472 23.2575 60.3702 23.1147 58.9663 24.0079L56.4554 25.6055L58.6886 29.1153L61.1994 27.5177C62.6033 26.6244 62.936 25.5973 62.1973 24.4364Z" fill="white"/>
<path d="M66.6256 25.4627L61.8 15.1433L63.1624 14.5062L67.4322 23.6372L72.0122 21.4955L67.7424 12.3645L69.1048 11.7274L73.3746 20.8584L77.9546 18.7167L73.6848 9.58571L75.0472 8.94863L79.8727 19.2681L66.6256 25.4627Z" fill="white"/>
<path d="M86.7214 5.10028L87.1217 6.34972L81.0421 8.29748L82.1307 11.6954L87.8141 9.87453L88.1998 11.0783L82.5163 12.8991L83.7172 16.6474L89.873 14.6753L90.2733 15.9247L82.6852 18.3557L79.2095 7.5069L86.7214 5.10028Z" fill="white"/>
<path d="M113.395 6.84689L113.552 8.14953L97.6658 10.0566L97.5094 8.75392L113.395 6.84689Z" fill="white"/>
<path d="M125.627 9.29324L122.061 0.608887L123.705 0.723232L126.544 7.88141L130.282 1.18061L131.894 1.29274L126.843 10.0354C126.32 10.9399 125.8 11.5721 125.284 11.9317C124.777 12.2922 124.232 12.452 123.646 12.4113C123.136 12.3758 122.674 12.2474 122.262 12.0263L122.351 10.7494C122.646 10.9624 123.065 11.0878 123.607 11.1255C124.235 11.1692 124.836 10.687 125.408 9.67896L125.627 9.29324Z" fill="white"/>
<path d="M141.425 10.9428C141.363 11.311 141.215 11.681 140.98 12.0526C140.746 12.4138 140.436 12.7512 140.048 13.065C139.661 13.3787 139.153 13.6021 138.525 13.7352C137.897 13.8682 137.21 13.8724 136.463 13.7476C135.053 13.5121 133.977 12.9917 133.236 12.1866C132.507 11.3726 132.251 10.3134 132.469 9.00878L133.905 9.24868C133.777 10.2113 133.981 10.9646 134.517 11.5084C135.055 12.0417 135.814 12.3901 136.792 12.5535C137.581 12.6853 138.275 12.5795 138.873 12.236C139.471 11.8925 139.829 11.3683 139.947 10.6634C140.012 10.2741 139.993 9.93043 139.892 9.63228C139.79 9.33413 139.609 9.09295 139.347 8.90872C139.086 8.7245 138.802 8.57973 138.495 8.4744C138.199 8.37083 137.846 8.28477 137.435 8.21623C137.078 8.15648 136.739 8.11076 136.42 8.07908L136.626 6.84813C136.791 6.8973 137.125 6.96405 137.63 7.04841C139.261 7.32082 140.189 6.78368 140.414 5.43701C140.614 4.23763 139.91 3.50349 138.3 3.2346C136.596 2.94989 135.537 3.55712 135.124 5.05629L133.688 4.8164C133.924 3.66613 134.48 2.86144 135.357 2.40232C136.236 1.93268 137.301 1.80243 138.553 2.01156C139.7 2.20313 140.583 2.61028 141.204 3.23304C141.835 3.85755 142.066 4.6748 141.897 5.68481C141.803 6.25294 141.532 6.73771 141.087 7.13911C140.643 7.53 140.156 7.75691 139.627 7.81985L139.619 7.86719C140.311 8.12347 140.81 8.53662 141.115 9.10665C141.43 9.67844 141.534 10.2905 141.425 10.9428Z" fill="white"/>
<path d="M154.402 5.98207L151.381 16.9661L149.931 16.5672L151.344 11.43L145.543 9.83447L144.13 14.9717L142.68 14.5728L145.702 3.58874L147.152 3.98763L145.891 8.56945L151.692 10.165L152.952 5.58319L154.402 5.98207Z" fill="white"/>
<path d="M162.669 8.97646L162.648 21.206L161.084 20.5923L161.182 16.8836L156.728 15.136L154.248 17.9095L152.758 17.325L161.09 8.35689L162.669 8.97646ZM161.203 15.6029L161.324 9.99546L157.569 14.1767L161.203 15.6029Z" fill="white"/>
<path d="M175.732 15.0324L175.141 16.2038L171.727 14.4819L167.188 23.4821L165.845 22.8048L170.384 13.8046L166.969 12.0827L167.56 10.9112L175.732 15.0324Z" fill="white"/>
<path d="M181.32 27.8284C180.751 28.7305 180.045 29.269 179.203 29.4439C178.376 29.6155 177.493 29.4053 176.555 28.8132L172.333 26.1489L178.413 16.5151L179.685 17.3178L177.217 21.2282L180.167 23.0898C181.114 23.6875 181.685 24.4013 181.881 25.2309C182.082 26.0515 181.895 26.9174 181.32 27.8284ZM180.034 27.0172C180.78 25.8355 180.449 24.8006 179.042 23.9125L176.526 22.3242L174.305 25.8421L176.822 27.4305C178.229 28.3186 179.3 28.1808 180.034 27.0172Z" fill="white"/>
<path d="M189.959 30.0213L192.876 32.4691C193.734 33.189 194.204 33.9732 194.286 34.8216C194.367 35.67 194.062 36.5068 193.369 37.3321C192.684 38.1492 191.912 38.5877 191.054 38.6476C190.211 38.7062 189.365 38.3789 188.515 37.6658L184.446 34.2513L191.769 25.5246L197.75 30.5436L196.907 31.5487L192.078 27.4964L189.959 30.0213ZM192.217 36.3653C193.116 35.2949 192.927 34.2249 191.653 33.1553L189.116 31.0263L186.441 34.213L188.979 36.342C190.253 37.4116 191.333 37.4194 192.217 36.3653Z" fill="white"/>
<path d="M204.487 36.7022C205.682 37.9504 206.219 39.2975 206.097 40.7433C205.982 42.1818 205.293 43.5059 204.03 44.7156C202.758 45.9327 201.382 46.5929 199.901 46.6965C198.42 46.8 197.079 46.2237 195.876 44.9678C195.264 44.3283 194.83 43.6436 194.574 42.9138C194.319 42.184 194.24 41.4618 194.339 40.7472C194.445 40.0404 194.679 39.3514 195.04 38.6803C195.409 38.0169 195.898 37.3939 196.507 36.8111C197.794 35.5793 199.158 34.9527 200.599 34.9313C202.048 34.9176 203.344 35.5079 204.487 36.7022ZM203.54 37.6095C202.662 36.6926 201.663 36.2974 200.544 36.4239C199.44 36.5507 198.414 37.0677 197.466 37.975C196.434 38.9634 195.856 40.0108 195.734 41.1171C195.627 42.2238 195.99 43.2125 196.824 44.0832C197.65 44.9461 198.618 45.3407 199.729 45.2668C200.839 45.193 201.907 44.6655 202.932 43.6845C203.949 42.7108 204.511 41.6706 204.618 40.564C204.733 39.465 204.373 38.4802 203.54 37.6095Z" fill="white"/>
<path d="M215.248 49.9021L206.235 56.8695L205.316 55.6796L213.29 49.5146L210.717 46.1854L205.504 49.9322C204.532 50.6291 203.631 51.0157 202.8 51.0918C201.976 51.1763 201.309 50.8895 200.8 50.2313C200.592 49.9612 200.429 49.6286 200.312 49.2335L201.325 48.4506C201.345 48.6509 201.469 48.8987 201.697 49.1941C201.887 49.4388 202.091 49.5905 202.312 49.6491C202.548 49.7097 202.91 49.6383 203.4 49.4349C203.897 49.2399 204.514 48.8703 205.253 48.3261L210.874 44.2437L215.248 49.9021Z" fill="white"/>
<path d="M214.888 64.088C213.984 64.654 213.115 64.8333 212.28 64.6258C211.46 64.4218 210.756 63.8496 210.168 62.9093L207.519 58.678L217.175 52.6333L217.973 53.9081L214.054 56.3617L215.904 59.3181C216.499 60.2675 216.704 61.1583 216.52 61.9906C216.345 62.8172 215.802 63.5164 214.888 64.088ZM214.082 62.7996C215.266 62.0582 215.417 60.9823 214.534 59.5718L212.955 57.0493L209.429 59.2567L211.008 61.7792C211.891 63.1896 212.916 63.5298 214.082 62.7996Z" fill="white"/>
<path d="M213.353 67.8364L223.726 63.1263L224.348 64.4958L215.17 68.6634L217.26 73.267L226.438 69.0994L227.06 70.4688L217.882 74.6364L219.972 79.24L229.15 75.0724L229.772 76.4418L219.4 81.1519L213.353 67.8364Z" fill="white"/>
<path d="M233.316 87.6261L232.064 88.017L230.162 81.9228L226.756 82.9857L228.534 88.6828L227.327 89.0593L225.55 83.3623L221.792 84.5348L223.718 90.7053L222.465 91.0962L220.092 83.4899L230.967 80.0963L233.316 87.6261Z" fill="white"/>
<path d="M231.367 114.355L230.063 114.502L228.278 98.6015L229.582 98.4551L231.367 114.355Z" fill="white"/>
</symbol></svg>