<svg width="30" height="30" viewBox="0 0 30 30" fill="none" xmlns="http://www.w3.org/2000/svg">
<mask id="path-1-inside-1" fill="white">
<path fill-rule="evenodd" clip-rule="evenodd" d="M5.48614 30L0.000349045 24.5154L16.7723 7.74722L1.14946 7.74722L1.14946 0.000232697L22.2322 0.000232697V6.86646e-05L29.9996 6.86646e-05V0.000232697H30L30 7.74722H29.9996L29.9996 28.7746L22.2322 28.7746L22.2322 13.2577L5.48614 30Z"/>
</mask>
<path d="M0.000349045 24.5154L-0.565273 23.9497L-1.13115 24.5154L-0.565273 25.0812L0.000349045 24.5154ZM5.48614 30L4.92052 30.5657L5.48614 31.1312L6.05176 30.5657L5.48614 30ZM16.7723 7.74722L17.3379 8.31296L18.7039 6.94722H16.7723V7.74722ZM1.14946 7.74722L0.349457 7.74722V8.54721L1.14946 8.54721V7.74722ZM1.14946 0.000232697V-0.799767L0.349457 -0.799767V0.000232697L1.14946 0.000232697ZM22.2322 0.000232697V0.800232H23.0322V0.000232697H22.2322ZM22.2322 6.86646e-05L22.2322 -0.799931H21.4322V6.86646e-05H22.2322ZM29.9996 6.86646e-05H30.7996V-0.799931H29.9996V6.86646e-05ZM29.9996 0.000232697H29.1996L29.1996 0.800232H29.9996V0.000232697ZM30 0.000232697H30.8V-0.799767H30V0.000232697ZM30 7.74722V8.54721H30.8V7.74722H30ZM29.9996 7.74722V6.94722H29.1996V7.74722H29.9996ZM29.9996 28.7746V29.5746H30.7996V28.7746H29.9996ZM22.2322 28.7746H21.4322V29.5746H22.2322V28.7746ZM22.2322 13.2577H23.0322V11.3266L21.6666 12.6919L22.2322 13.2577ZM-0.565273 25.0812L4.92052 30.5657L6.05176 29.4343L0.565971 23.9497L-0.565273 25.0812ZM16.2066 7.18147L-0.565273 23.9497L0.565971 25.0812L17.3379 8.31296L16.2066 7.18147ZM16.7723 6.94722L1.14946 6.94722V8.54721L16.7723 8.54721V6.94722ZM1.94946 7.74722L1.94946 0.000232697L0.349457 0.000232697L0.349457 7.74722L1.94946 7.74722ZM1.14946 0.800232L22.2322 0.800232L22.2322 -0.799767L1.14946 -0.799767V0.800232ZM21.4322 6.86646e-05V0.000232697H23.0322V6.86646e-05H21.4322ZM29.9996 -0.799931L22.2322 -0.799931L22.2322 0.800068L29.9996 0.800068V-0.799931ZM30.7996 0.000232697V6.86646e-05H29.1996V0.000232697H30.7996ZM29.9996 0.800232H30V-0.799767H29.9996V0.800232ZM29.2 0.000232697L29.2 7.74722H30.8L30.8 0.000232697H29.2ZM30 6.94722H29.9996V8.54721H30V6.94722ZM30.7996 28.7746L30.7996 7.74722H29.1996L29.1996 28.7746H30.7996ZM22.2322 29.5746L29.9996 29.5746V27.9746L22.2322 27.9746V29.5746ZM21.4322 13.2577L21.4322 28.7746H23.0322L23.0322 13.2577H21.4322ZM6.05176 30.5657L22.7978 13.8234L21.6666 12.6919L4.92052 29.4343L6.05176 30.5657Z" fill="#E74A26" mask="url(#path-1-inside-1)"/>
</svg>
