<svg width="30" height="30" fill="none" xmlns="http://www.w3.org/2000/svg"><mask id="a" fill="#fff"><path fill-rule="evenodd" clip-rule="evenodd" d="M5.486 30L0 24.515 16.772 7.747H1.15V0H30v28.775h-7.768V13.258L5.486 30z"/></mask><path d="M0 24.515l-.565-.565-.566.565.566.566.565-.566zM5.486 30l-.565.566.565.565.566-.565L5.486 30zM16.772 7.747l.566.566 1.366-1.366h-1.932v.8zm-15.623 0h-.8v.8h.8v-.8zM1.15 0v-.8h-.8V0h.8zm21.083 0v.8h.8V0h-.8zm0 0v-.8h-.8V0h.8zM30 0h.8v-.8H30V0zm0 0h-.8v.8h.8V0zm0 0h.8v-.8H30V0zm0 7.747v.8h.8v-.8H30zm0 0v-.8h-.8v.8h.8zm0 21.028v.8h.8v-.8H30zm-7.768 0h-.8v.8h.8v-.8zm0-15.517h.8v-1.931l-1.365 1.365.565.566zM-.565 25.08l5.486 5.485 1.13-1.132L.567 23.95l-1.132 1.13zm16.772-17.9L-.565 23.95l1.131 1.13L17.338 8.313l-1.131-1.132zm.565-.234H1.15v1.6h15.623v-1.6zm-14.823.8V0H.35v7.747h1.6zM1.15.8h21.083V-.8H1.15V.8zM21.432 0h1.6-1.6zM30-.8h-7.768V.8H30V-.8zm.8.8h-1.6 1.6zm-.8.8V-.8.8zm-.8-.8v7.747h1.6V0h-1.6zm.8 6.947v1.6-1.6zm.8 21.828V7.747h-1.6v21.028h1.6zm-8.568.8H30v-1.6h-7.768v1.6zm-.8-16.317v15.517h1.6V13.258h-1.6zM6.052 30.566l16.746-16.743-1.131-1.131L4.92 29.434l1.13 1.132z" fill="#E74A26" mask="url(#a)"/></svg>