<svg width="17" height="17" viewBox="0 0 17 17" fill="none" xmlns="http://www.w3.org/2000/svg">
<mask id="path-1-inside-1" fill="white">
<path fill-rule="evenodd" clip-rule="evenodd" d="M0.581902 10.2327L0.581552 7.06916L10.2535 7.07023L5.74845 2.56517L7.98243 0.331192L16.302 8.65075L16.3019 8.65079L16.302 8.6508L8.00433 16.9484L5.76445 14.7086L10.2393 10.2337L0.581902 10.2327Z"/>
</mask>
<path d="M0.581552 7.06916L0.581641 6.26916L-0.218536 6.26907L-0.218447 7.06925L0.581552 7.06916ZM0.581902 10.2327L-0.218098 10.2327L-0.21801 11.0326L0.581814 11.0327L0.581902 10.2327ZM10.2535 7.07023L10.2534 7.87023L12.1851 7.87044L10.8192 6.50455L10.2535 7.07023ZM5.74845 2.56517L5.18276 1.99948L4.61708 2.56517L5.18276 3.13085L5.74845 2.56517ZM7.98243 0.331192L8.54811 -0.234494L7.98243 -0.800179L7.41674 -0.234494L7.98243 0.331192ZM16.302 8.65075L16.8677 9.21643L17.4334 8.65075L16.8677 8.08506L16.302 8.65075ZM16.3019 8.65079L15.7363 8.0851L15.1706 8.65079L15.7363 9.21647L16.3019 8.65079ZM16.302 8.6508L16.8676 9.21649L17.4333 8.6508L16.8676 8.08512L16.302 8.6508ZM8.00433 16.9484L7.43864 17.5141L8.00433 18.0798L8.57001 17.5141L8.00433 16.9484ZM5.76445 14.7086L5.19876 14.1429L4.63308 14.7086L5.19876 15.2742L5.76445 14.7086ZM10.2393 10.2337L10.805 10.7994L12.1704 9.43394L10.2394 9.43373L10.2393 10.2337ZM-0.218447 7.06925L-0.218098 10.2327L1.3819 10.2326L1.38155 7.06907L-0.218447 7.06925ZM10.2536 6.27023L0.581641 6.26916L0.581464 7.86916L10.2534 7.87023L10.2536 6.27023ZM10.8192 6.50455L6.31413 1.99948L5.18276 3.13085L9.68782 7.63592L10.8192 6.50455ZM6.31413 3.13085L8.54811 0.896878L7.41674 -0.234494L5.18276 1.99948L6.31413 3.13085ZM7.41674 0.896878L15.7363 9.21643L16.8677 8.08506L8.54811 -0.234494L7.41674 0.896878ZM15.7363 8.08506L15.7363 8.0851L16.8676 9.21647L16.8677 9.21643L15.7363 8.08506ZM16.8676 8.08512L16.8676 8.0851L15.7363 9.21647L15.7363 9.21649L16.8676 8.08512ZM8.57001 17.5141L16.8676 9.21649L15.7363 8.08512L7.43864 16.3827L8.57001 17.5141ZM5.19876 15.2742L7.43864 17.5141L8.57001 16.3827L6.33013 14.1429L5.19876 15.2742ZM9.67359 9.66804L5.19876 14.1429L6.33013 15.2742L10.805 10.7994L9.67359 9.66804ZM0.581814 11.0327L10.2392 11.0337L10.2394 9.43373L0.581991 9.43266L0.581814 11.0327Z" fill="white" mask="url(#path-1-inside-1)"/>
</svg>
