<svg width="74" height="73" fill="none" xmlns="http://www.w3.org/2000/svg"><mask id="a" fill="#fff"><path fill-rule="evenodd" clip-rule="evenodd" d="M7.538 43.538l-.016-13.185 40.38.048-18.825-18.824 9.313-9.312 34.672 34.672-9.312 9.313-25.277 25.276-9.335-9.335 18.605-18.604-40.205-.049z"/></mask><path fill-rule="evenodd" clip-rule="evenodd" d="M7.538 43.538l-.016-13.185 40.38.048-18.825-18.824 9.313-9.312 34.672 34.672-9.312 9.313-25.277 25.276-9.335-9.335 18.605-18.604-40.205-.049z" fill="#fff"/><path d="M7.522 30.352l.001-1H6.521l.001 1.002 1-.002zm.016 13.186l-1 .001.001.998.998.001.001-1zm40.363-13.137v1l2.418.003-1.71-1.71-.708.707zM29.077 11.577l-.707-.707-.707.707.707.707.707-.707zm9.313-9.312l.707-.707L38.39.85l-.707.707.707.707zm34.672 34.672l.708.708.707-.708-.707-.707-.707.708zM63.75 46.25l-.707.707.707.707.707-.707-.707-.707zm0 0l.707-.707-.707-.707-.707.707.707.707zM38.473 71.526l-.707.707.707.707.707-.707-.707-.707zm-9.335-9.335l-.707-.707-.707.707.707.707.707-.707zm18.605-18.604l.707.707 1.704-1.704-2.41-.003-.001 1zM6.523 30.354l.015 13.185 2-.002-.016-13.186-2 .003zm41.38-.953l-40.38-.049-.002 2 40.38.05.002-2zm.706.293L29.784 10.87l-1.414 1.414 18.824 18.824 1.414-1.414zm-18.825-17.41l9.313-9.312-1.414-1.414-9.313 9.312 1.415 1.414zm7.899-9.312l34.672 34.673 1.415-1.415L39.097 1.558l-1.414 1.414zM72.355 36.23l-9.312 9.313 1.414 1.414 9.313-9.312-1.415-1.415zm-7.898 9.313l-1.414 1.414 1.414-1.414zM39.18 72.233l25.277-25.276-1.414-1.414-25.277 25.276 1.414 1.414zm-10.749-9.335l9.335 9.335 1.414-1.414-9.335-9.335-1.414 1.414zM47.036 42.88L28.43 61.484l1.414 1.414L48.45 44.294l-1.414-1.414zM7.537 44.538l40.205.049.002-2-40.205-.049-.002 2z" fill="#fff" mask="url(#a)"/></svg>