<svg width="74" height="73" viewBox="0 0 74 73" fill="none" xmlns="http://www.w3.org/2000/svg">
<mask id="path-1-inside-1" fill="white">
<path fill-rule="evenodd" clip-rule="evenodd" d="M7.53819 43.5382L7.52225 30.3525L47.9014 30.4013L29.0773 11.5772L38.3898 2.2648L73.0625 36.9375L63.7501 46.2499L63.7498 46.2497L38.4732 71.5263L29.1383 62.1913L47.7428 43.5868L7.53819 43.5382Z"/>
</mask>
<path fill-rule="evenodd" clip-rule="evenodd" d="M7.53819 43.5382L7.52225 30.3525L47.9014 30.4013L29.0773 11.5772L38.3898 2.2648L73.0625 36.9375L63.7501 46.2499L63.7498 46.2497L38.4732 71.5263L29.1383 62.1913L47.7428 43.5868L7.53819 43.5382Z" fill="white"/>
<path d="M7.52225 30.3525L7.52346 29.3525L6.52104 29.3513L6.52225 30.3537L7.52225 30.3525ZM7.53819 43.5382L6.53819 43.5394L6.53939 44.537L7.53698 44.5382L7.53819 43.5382ZM47.9014 30.4013L47.9002 31.4013L50.3186 31.4042L48.6085 29.6942L47.9014 30.4013ZM29.0773 11.5772L28.3702 10.8701L27.6631 11.5772L28.3702 12.2843L29.0773 11.5772ZM38.3898 2.2648L39.0969 1.55769L38.3898 0.850588L37.6827 1.55769L38.3898 2.2648ZM73.0625 36.9375L73.7696 37.6446L74.4767 36.9375L73.7696 36.2304L73.0625 36.9375ZM63.7501 46.2499L63.043 46.957L63.7501 47.6642L64.4572 46.957L63.7501 46.2499ZM63.7498 46.2497L64.4569 45.5426L63.7498 44.8355L63.0427 45.5426L63.7498 46.2497ZM38.4732 71.5263L37.7661 72.2334L38.4732 72.9405L39.1803 72.2334L38.4732 71.5263ZM29.1383 62.1913L28.4312 61.4842L27.7241 62.1913L28.4312 62.8984L29.1383 62.1913ZM47.7428 43.5868L48.4499 44.2939L50.1541 42.5897L47.744 42.5868L47.7428 43.5868ZM6.52225 30.3537L6.53819 43.5394L8.53819 43.537L8.52225 30.3513L6.52225 30.3537ZM47.9026 29.4013L7.52346 29.3525L7.52104 31.3525L47.9002 31.4013L47.9026 29.4013ZM48.6085 29.6942L29.7845 10.8701L28.3702 12.2843L47.1943 31.1084L48.6085 29.6942ZM29.7845 12.2843L39.0969 2.97191L37.6827 1.55769L28.3702 10.8701L29.7845 12.2843ZM37.6827 2.97191L72.3554 37.6446L73.7696 36.2304L39.0969 1.55769L37.6827 2.97191ZM72.3554 36.2304L63.043 45.5428L64.4572 46.957L73.7696 37.6446L72.3554 36.2304ZM64.4572 45.5428L64.4569 45.5426L63.0427 46.9568L63.043 46.957L64.4572 45.5428ZM39.1803 72.2334L64.4569 46.9568L63.0427 45.5426L37.7661 70.8192L39.1803 72.2334ZM28.4312 62.8984L37.7661 72.2334L39.1803 70.8192L29.8454 61.4842L28.4312 62.8984ZM47.0357 42.8797L28.4312 61.4842L29.8454 62.8984L48.4499 44.2939L47.0357 42.8797ZM7.53698 44.5382L47.7416 44.5868L47.744 42.5868L7.5394 42.5382L7.53698 44.5382Z" fill="white" mask="url(#path-1-inside-1)"/>
</svg>
