<svg width="238" height="238" fill="none" xmlns="http://www.w3.org/2000/svg"><path d="M120.473 153.527l-9.335-9.335 34.589-34.589 9.335 9.335-34.589 34.589z" fill="#C4C4C4"/><path d="M89.538 125.539l-.016-13.186 53.525.065.016 13.185-53.525-.064z" fill="#C4C4C4"/><path d="M111.077 93.578l9.313-9.313 34.672 34.673-9.312 9.312-34.673-34.672z" fill="#C4C4C4"/><path d="M228.991 122.987l8.585-3.799-.07 1.646-7.079 3.031 6.799 3.555-.068 1.615-8.876-4.813c-.918-.498-1.564-1.001-1.938-1.508-.374-.496-.548-1.037-.523-1.623.021-.512.137-.977.347-1.395l1.279.054c-.205.301-.319.724-.342 1.267-.027.629.471 1.216 1.494 1.761l.392.209zm-1.168 15.327a2.998 2.998 0 01-1.123-.411 4.337 4.337 0 01-1.04-.9c-.326-.377-.565-.878-.717-1.502-.152-.623-.178-1.31-.076-2.06.192-1.417.68-2.508 1.462-3.274.791-.754 1.842-1.042 3.152-.864l-.195 1.443c-.967-.099-1.713.128-2.24.681-.517.554-.842 1.323-.975 2.306-.108.793.019 1.483.381 2.07.362.587.897.929 1.605 1.025.391.053.734.024 1.029-.086.295-.111.53-.3.706-.567.176-.266.312-.555.408-.865a6.42 6.42 0 00.226-1.067c.049-.359.084-.699.106-1.019l1.236.168c-.044.166-.1.503-.169 1.01-.222 1.639.343 2.549 1.696 2.733 1.205.164 1.917-.563 2.137-2.181.232-1.712-.407-2.751-1.919-3.118l.196-1.442c1.157.2 1.978.731 2.464 1.593.497.864.66 1.925.489 3.183-.156 1.152-.536 2.048-1.14 2.687-.605.65-1.414.906-2.429.768a2.455 2.455 0 01-1.479-.765c-.404-.432-.646-.911-.725-1.439l-.047-.006c-.235.7-.633 1.211-1.193 1.533a2.757 2.757 0 01-1.826.366zM233 151.708l-11.06-2.728.36-1.461 5.173 1.277 1.44-5.841-5.172-1.276.36-1.461 11.06 2.729-.36 1.46-4.614-1.138-1.441 5.841 4.614 1.138-.36 1.46zm-2.654 7.923l-12.224.346.566-1.582 3.71-.014 1.613-4.503-2.846-2.397.539-1.506 9.214 8.059-.572 1.597zm-6.667-1.267l5.608-.047-4.292-3.628-1.316 3.675zm.717 15.021l-1.187-.561 1.633-3.457-9.115-4.304.642-1.36 9.115 4.304 1.633-3.458 1.186.56-3.907 8.276zm-12.477 5.586c-.919-.542-1.478-1.232-1.677-2.068-.196-.822-.012-1.711.552-2.666l2.539-4.298 9.809 5.794-.765 1.295-3.981-2.352-1.774 3.004c-.57.964-1.267 1.556-2.09 1.776-.815.225-1.686.063-2.613-.485zm.773-1.308c1.203.71 2.228.349 3.074-1.083l1.514-2.563-3.582-2.116-1.514 2.563c-.846 1.432-.677 2.499.508 3.199zm-2.729 9.94l-2.362 2.988c-.694.878-1.464 1.371-2.31 1.477-.846.107-1.691-.174-2.536-.842-.837-.662-1.298-1.421-1.383-2.276-.083-.841.22-1.697.908-2.567l3.294-4.167 8.937 7.066-4.843 6.124-1.029-.813 3.91-4.945-2.586-2.045zm-6.275 2.443c1.096.866 2.16.647 3.192-.658l2.054-2.598-3.263-2.58-2.054 2.598c-1.032 1.305-1.009 2.384.071 3.238zm.157 12.081c-1.213 1.231-2.543 1.806-3.992 1.726-1.441-.073-2.785-.723-4.031-1.951-1.253-1.235-1.953-2.592-2.1-4.069-.146-1.477.391-2.835 1.611-4.073.622-.631 1.293-1.085 2.015-1.361a4.576 4.576 0 012.159-.299c.71.086 1.405.299 2.087.641.673.35 1.31.82 1.911 1.412 1.268 1.25 1.934 2.596 1.998 4.036.055 1.448-.497 2.76-1.658 3.938zm-.934-.921c.891-.904 1.257-1.914 1.098-3.029-.159-1.1-.705-2.111-1.64-3.032-1.018-1.003-2.082-1.55-3.191-1.64-1.109-.074-2.087.317-2.933 1.176-.839.851-1.205 1.83-1.099 2.938.106 1.108.665 2.16 1.675 3.156 1.003.988 2.059 1.52 3.168 1.595 1.102.082 2.076-.306 2.922-1.164zm-12.198 12.251l-7.227-8.806 1.162-.954 6.395 7.792 3.253-2.67-3.897-5.101c-.725-.951-1.138-1.84-1.238-2.669-.109-.821.159-1.496.802-2.024a3.01 3.01 0 01.983-.517l.812.99c-.2.025-.444.157-.732.394-.239.196-.385.405-.437.627-.054.237.028.598.246 1.082.209.49.596 1.097 1.162 1.819l4.244 5.5-5.528 4.537zm-14.224.027c-.592-.887-.797-1.751-.614-2.591.18-.826.731-1.546 1.654-2.162l4.152-2.772 6.325 9.474-1.251.836-2.567-3.846-2.901 1.937c-.931.621-1.816.853-2.653.694-.832-.151-1.546-.674-2.145-1.57zm1.265-.844c.775 1.162 1.855 1.281 3.239.357l2.475-1.652-2.31-3.46-2.475 1.653c-1.384.924-1.693 1.958-.929 3.102zm-4.802-.773l5.016 10.228-1.35.662-4.439-9.05-4.539 2.226 4.438 9.05-1.35.663-4.439-9.05-4.539 2.226 4.439 9.05-1.351.662-5.016-10.228 13.13-6.439zm-19.668 20.673l-.423-1.242 6.041-2.062-1.152-3.377-5.648 1.928-.408-1.196 5.648-1.928-1.272-3.725-6.117 2.088-.424-1.242 7.541-2.573 3.68 10.781-7.466 2.548zm-26.639-1.307l-.181-1.299 15.846-2.212.182 1.299-15.847 2.212zm-12.711-2.29l3.733 8.614-1.646-.083-2.975-7.102-3.609 6.771-1.613-.081 4.881-8.838c.505-.914 1.012-1.556 1.522-1.926.5-.37 1.042-.54 1.628-.511.511.026.975.145 1.392.358l-.064 1.279c-.3-.208-.721-.325-1.264-.352-.629-.032-1.22.462-1.773 1.481l-.212.39zm-15.448-1.359c.054-.369.195-.742.423-1.118.227-.366.53-.709.912-1.03.382-.321.885-.555 1.51-.7.626-.145 1.313-.162 2.062-.052 1.414.209 2.499.709 3.256 1.499.745.8 1.021 1.854.828 3.163l-1.441-.212c.11-.965-.108-1.715-.655-2.248-.548-.523-1.313-.857-2.294-1.001-.792-.117-1.483.002-2.075.357-.591.355-.939.886-1.043 1.593-.058.39-.033.734.075 1.03.107.296.293.534.558.713.264.179.551.318.86.418.298.098.653.177 1.064.237.359.053.699.093 1.018.118l-.182 1.235a10.089 10.089 0 00-1.008-.181c-1.636-.241-2.553.314-2.752 1.664-.178 1.203.541 1.924 2.156 2.162 1.709.252 2.756-.376 3.14-1.882l1.44.212c-.213 1.154-.754 1.97-1.622 2.445-.87.487-1.932.637-3.188.452-1.15-.169-2.041-.559-2.674-1.17-.643-.612-.89-1.425-.74-2.438.084-.57.345-1.06.782-1.47.437-.399.919-.635 1.447-.708l.007-.048c-.697-.243-1.204-.646-1.52-1.21a2.758 2.758 0 01-.344-1.83zm-13.139 5.108l2.813-11.04 1.457.371-1.315 5.164 5.83 1.485 1.315-5.163 1.457.371-2.812 11.039-1.458-.371 1.174-4.605-5.83-1.485-1.173 4.605-1.458-.371zm-8.072-2.808l-.208-12.227 1.575.584-.028 3.71 4.485 1.664 2.428-2.82 1.5.557-8.162 9.122-1.59-.59zm1.341-6.652l-.015 5.608 3.676-4.251-3.66-1.357zm-14.846.651l.568-1.182 3.446 1.658 4.371-9.083 1.355.652-4.37 9.083 3.445 1.659-.57 1.182-8.246-3.969zm-5.581-12.617c.553-.912 1.248-1.464 2.087-1.654.824-.187 1.71.007 2.66.582l4.269 2.586-5.902 9.744-1.287-.779 2.396-3.955-2.983-1.807c-.958-.581-1.543-1.284-1.753-2.11-.216-.816-.045-1.685.513-2.607zm1.3.788c-.724 1.195-.374 2.223 1.049 3.085l2.546 1.542 2.155-3.558-2.546-1.542c-1.423-.862-2.491-.704-3.204.473zm-9.859-2.794l-2.961-2.394c-.87-.704-1.355-1.48-1.452-2.327-.097-.846.193-1.689.87-2.526.67-.83 1.434-1.282 2.291-1.358.842-.074 1.694.238 2.556.936l4.131 3.34-7.163 8.858-6.071-4.909.825-1.021 4.902 3.964 2.072-2.563zm-2.373-6.302c-.879 1.087-.671 2.153.623 3.199l2.575 2.083 2.616-3.235-2.576-2.082c-1.294-1.047-2.373-1.035-3.238.035zm-11.959.161c-1.221-1.222-1.787-2.557-1.697-4.005.083-1.441.743-2.779 1.98-4.016 1.245-1.245 2.606-1.935 4.084-2.071 1.479-.136 2.833.411 4.062 1.641.626.626 1.075 1.301 1.346 2.025.272.724.366 1.444.283 2.161a6.313 6.313 0 01-.656 2.082 7.938 7.938 0 01-1.425 1.9c-1.26 1.26-2.61 1.916-4.05 1.969-1.449.045-2.758-.517-3.927-1.686zm.928-.928c.898.898 1.905 1.271 3.02 1.12 1.102-.15 2.116-.69 3.044-1.617 1.01-1.011 1.565-2.071 1.663-3.18.083-1.108-.301-2.089-1.154-2.941-.844-.845-1.821-1.218-2.93-1.12-1.109.098-2.165.648-3.168 1.652-.995.995-1.535 2.047-1.618 3.156-.09 1.101.29 2.078 1.143 2.93zm-12.205-12.392l8.885-7.131.941 1.173-7.86 6.309 2.633 3.282 5.144-3.841c.958-.714 1.852-1.117 2.682-1.209.823-.099 1.494.175 2.015.824.214.267.383.596.506.989l-.998.801c-.023-.2-.152-.445-.386-.736-.194-.242-.401-.39-.623-.444-.236-.056-.598.022-1.084.234-.493.204-1.103.585-1.832 1.142l-5.546 4.184-4.477-5.577zm.139-14.182c.893-.582 1.76-.777 2.598-.585.823.189 1.538.748 2.143 1.677l2.726 4.182-9.543 6.221-.822-1.26 3.874-2.525-1.904-2.922c-.612-.938-.834-1.825-.665-2.661.16-.83.69-1.539 1.593-2.127zm.83 1.274c-1.17.763-1.302 1.841-.393 3.235l1.625 2.493 3.485-2.271-1.625-2.494c-.909-1.394-1.94-1.715-3.092-.963zm.899-4.647l-10.265 4.941-.652-1.356 9.082-4.371-2.192-4.556-9.083 4.372-.652-1.356 9.082-4.371-2.192-4.556-9.083 4.372-.652-1.356 10.265-4.94 6.342 13.177zM5.377 152.456l1.245-.415 2.017 6.057 3.385-1.127-1.885-5.662 1.2-.399 1.884 5.662 3.735-1.243-2.042-6.133 1.245-.415 2.517 7.561-10.81 3.598-2.49-7.484zm1.514-26.565l1.3-.171 2.09 15.863-1.3.171-2.09-15.863zm2.371-12.833l-8.656 3.633.102-1.645 7.136-2.893-6.73-3.686.1-1.613 8.781 4.983c.909.516 1.545 1.031 1.909 1.545.364.503.528 1.048.492 1.633a3.395 3.395 0 01-.375 1.388l-1.277-.079c.21-.297.333-.717.366-1.26.039-.628-.448-1.225-1.46-1.79l-.388-.216zm1.443-15.174c.37.058.74.202 1.115.433a4.32 4.32 0 011.023.92c.318.383.548.889.688 1.515.14.626.152 1.313.036 2.062-.22 1.412-.727 2.494-1.524 3.244-.805.739-1.862 1.007-3.169.804l.224-1.439c.964.117 1.715-.095 2.252-.638.527-.544.867-1.307 1.02-2.287.122-.79.008-1.483-.342-2.077-.35-.594-.879-.946-1.585-1.055-.39-.06-.734-.039-1.03.066a1.43 1.43 0 00-.718.553 3.375 3.375 0 00-.424.857c-.1.297-.182.652-.246 1.063-.056.358-.098.697-.126 1.017l-1.233-.192c.047-.165.11-.501.189-1.007.253-1.634-.294-2.555-1.644-2.765-1.201-.186-1.927.527-2.177 2.139-.266 1.708.354 2.759 1.858 3.155l-.224 1.439c-1.153-.223-1.964-.769-2.433-1.641-.48-.873-.622-1.937-.427-3.191.178-1.15.575-2.038 1.19-2.665.618-.639 1.432-.879 2.444-.722.57.088 1.057.353 1.464.794.396.44.628.923.697 1.452l.048.007c.248-.695.655-1.198 1.222-1.51a2.757 2.757 0 011.832-.33zm-4.92-13.53l11.006 2.938-.388 1.454-5.147-1.375-1.552 5.813 5.148 1.374-.388 1.453-11.007-2.938.388-1.453 4.591 1.225 1.552-5.812-4.591-1.225.388-1.454zm2.719-7.661l12.229-.117-.596 1.571-3.71-.056-1.697 4.473 2.801 2.45-.568 1.495-9.06-8.23.6-1.586zm6.642 1.391l-5.608-.057 4.223 3.707 1.385-3.65zm-.41-15.134l1.176.582-1.697 3.427 9.034 4.473-.668 1.347-9.033-4.472-1.697 3.427-1.176-.582 4.061-8.202zm12.744-5.613c.905.563 1.45 1.264 1.63 2.105.178.826-.026 1.71-.61 2.653l-2.634 4.24-9.678-6.008.793-1.278 3.928 2.439 1.84-2.963c.591-.952 1.3-1.528 2.129-1.73.819-.207 1.686-.026 2.601.542zm-.803 1.291c-1.187-.737-2.219-.398-3.097 1.015l-1.57 2.529 3.535 2.194 1.57-2.528c.877-1.414.732-2.484-.438-3.21zm2.518-9.383L31.61 46.3c.711-.866 1.49-1.344 2.337-1.435.848-.091 1.688.205 2.52.889.825.676 1.272 1.443 1.342 2.3.067.843-.25 1.692-.954 2.55l-3.37 4.106-8.806-7.227 4.953-6.035 1.014.832-4 4.873 2.549 2.09zm6.319-2.328c-1.08-.886-2.148-.686-3.204.6l-2.101 2.56 3.216 2.64 2.1-2.561c1.056-1.286 1.052-2.366-.011-3.239zm.168-12.25c1.235-1.209 2.576-1.76 4.023-1.653 1.44.098 2.771.773 3.995 2.023 1.23 1.258 1.906 2.627 2.025 4.107.12 1.48-.442 2.827-1.684 4.043-.633.62-1.313 1.06-2.04 1.324a4.58 4.58 0 01-2.164.26 6.307 6.307 0 01-2.074-.68 7.933 7.933 0 01-1.886-1.445c-1.245-1.274-1.887-2.63-1.924-4.072-.03-1.448.547-2.75 1.729-3.907zm.917.938c-.907.887-1.291 1.89-1.153 3.008.14 1.103.667 2.123 1.585 3.06 1 1.023 2.053 1.588 3.16 1.698 1.108.096 2.093-.278 2.955-1.121.854-.836 1.238-1.809 1.152-2.918-.086-1.11-.625-2.172-1.618-3.186-.984-1.006-2.03-1.557-3.138-1.652-1.1-.102-2.081.268-2.943 1.11zm12.71-12.268l7.033 8.961-1.183.929-6.223-7.93-3.31 2.598 3.784 5.186c.704.966 1.097 1.864 1.18 2.694.09.824-.192 1.493-.847 2.007-.268.21-.6.376-.994.495l-.79-1.007c.2-.021.447-.147.74-.378.244-.19.394-.397.451-.618.06-.236-.015-.598-.222-1.086-.199-.495-.573-1.11-1.122-1.845l-4.123-5.591 5.626-4.415zm14.171.283c.572.9.758 1.768.557 2.604-.198.822-.765 1.53-1.701 2.126l-4.212 2.68-6.116-9.612 1.27-.807 2.482 3.901 2.943-1.872c.944-.602 1.834-.813 2.667-.636.828.169 1.531.707 2.11 1.616zm-1.283.816c-.75-1.178-1.827-1.321-3.23-.428l-2.512 1.598 2.234 3.51 2.51-1.598c1.404-.894 1.737-1.92.998-3.082zm4.429 1.027L61.8 15.143l1.362-.637 4.27 9.131 4.58-2.142-4.27-9.13 1.363-.638 4.27 9.131 4.58-2.141-4.27-9.131 1.362-.637 4.826 10.32-13.247 6.194zM86.721 5.1l.4 1.25-6.079 1.947 1.089 3.398 5.683-1.82.386 1.203-5.684 1.821 1.201 3.748 6.156-1.972.4 1.25-7.588 2.43L79.21 7.508 86.72 5.1zm26.674 1.747l.157 1.303-15.886 1.907-.157-1.303 15.886-1.907zm12.232 2.446L122.061.61l1.644.114 2.839 7.158 3.738-6.7 1.612.112-5.051 8.742c-.523.905-1.043 1.537-1.559 1.897-.507.36-1.052.52-1.638.48a3.391 3.391 0 01-1.384-.386l.089-1.277c.295.213.714.339 1.256.377.628.043 1.229-.439 1.801-1.447l.219-.386zm15.798 1.65c-.062.368-.21.738-.445 1.11a4.362 4.362 0 01-.932 1.012c-.387.314-.895.537-1.523.67-.628.133-1.315.137-2.062.013-1.41-.236-2.486-.756-3.227-1.561-.729-.814-.985-1.874-.767-3.178l1.436.24c-.128.962.076 1.716.612 2.26.538.533 1.297.881 2.275 1.044.789.132 1.483.026 2.081-.317.598-.344.956-.868 1.074-1.573.065-.389.046-.733-.055-1.03a1.43 1.43 0 00-.545-.724 3.36 3.36 0 00-.852-.435 6.457 6.457 0 00-1.06-.258c-.357-.06-.696-.105-1.015-.137l.206-1.23c.165.048.499.115 1.004.2 1.631.272 2.559-.265 2.784-1.612.2-1.2-.504-1.934-2.114-2.202-1.704-.285-2.763.322-3.176 1.821l-1.436-.24c.236-1.15.792-1.955 1.669-2.414.879-.47 1.944-.6 3.196-.39 1.147.191 2.03.598 2.651 1.221.631.625.862 1.442.693 2.452a2.454 2.454 0 01-.81 1.454c-.444.391-.931.618-1.46.68l-.008.048c.692.256 1.191.67 1.496 1.24a2.76 2.76 0 01.31 1.836zm12.977-4.961l-3.021 10.984-1.45-.399 1.413-5.137-5.801-1.596-1.413 5.138-1.45-.4 3.022-10.983 1.45.399-1.261 4.581 5.801 1.596 1.26-4.582 1.45.4zm8.267 2.994l-.021 12.23-1.564-.614.098-3.708-4.454-1.748-2.48 2.774-1.49-.585 8.332-8.968 1.579.62zm-1.466 6.627l.121-5.608-3.755 4.182 3.634 1.426zm14.529-.571l-.591 1.172-3.414-1.722-4.539 9-1.343-.677 4.539-9-3.415-1.722.591-1.172 8.172 4.121zm5.588 12.796c-.569.902-1.275 1.441-2.117 1.616-.827.172-1.71-.039-2.648-.63l-4.222-2.665 6.08-9.634 1.272.803-2.468 3.91 2.95 1.862c.947.598 1.518 1.311 1.714 2.14.201.822.014 1.687-.561 2.598zm-1.286-.81c.746-1.183.415-2.217-.992-3.105l-2.516-1.589-2.221 3.518 2.517 1.588c1.407.889 2.478.75 3.212-.413zm9.925 3.003l2.917 2.448c.858.72 1.328 1.504 1.41 2.353.081.848-.224 1.685-.917 2.51-.685.817-1.457 1.256-2.315 1.316-.843.058-1.689-.27-2.539-.982l-4.069-3.415 7.323-8.726 5.981 5.019-.843 1.005-4.829-4.053-2.119 2.525zm2.258 6.344c.899-1.07.71-2.14-.564-3.21l-2.537-2.129-2.675 3.187 2.538 2.129c1.274 1.07 2.354 1.077 3.238.023zm12.27.337c1.195 1.248 1.732 2.596 1.61 4.041-.115 1.439-.804 2.763-2.067 3.973-1.272 1.217-2.648 1.877-4.129 1.98-1.481.104-2.822-.472-4.025-1.728-.612-.64-1.046-1.324-1.302-2.054a4.584 4.584 0 01-.235-2.167c.106-.707.34-1.396.701-2.067a7.928 7.928 0 011.467-1.869c1.287-1.232 2.651-1.858 4.092-1.88 1.449-.013 2.745.577 3.888 1.771zm-.947.907c-.878-.916-1.877-1.312-2.996-1.185-1.104.127-2.13.644-3.078 1.551-1.032.988-1.61 2.036-1.732 3.142-.107 1.107.256 2.096 1.09 2.966.826.863 1.794 1.258 2.905 1.184 1.11-.074 2.178-.602 3.203-1.583 1.017-.973 1.579-2.013 1.686-3.12.115-1.099-.245-2.084-1.078-2.955zm11.708 12.293l-9.013 6.968-.919-1.19 7.974-6.165-2.573-3.33-5.213 3.747c-.972.697-1.873 1.084-2.704 1.16-.824.084-1.491-.203-2-.86a3.028 3.028 0 01-.488-.998l1.013-.783c.02.2.144.448.372.743.19.245.394.396.615.455.236.06.598-.01 1.088-.214.497-.195 1.114-.565 1.853-1.109l5.621-4.082 4.374 5.658zm-.36 14.186c-.904.566-1.773.745-2.608.538-.82-.204-1.524-.776-2.112-1.717l-2.649-4.231 9.656-6.045.798 1.275-3.919 2.454 1.85 2.956c.595.95.8 1.84.616 2.673-.175.826-.718 1.525-1.632 2.097zm-.806-1.288c1.184-.742 1.335-1.818.452-3.228l-1.579-2.523-3.526 2.208 1.579 2.522c.883 1.41 1.908 1.75 3.074 1.02zm-.729 5.036l10.373-4.71.622 1.37-9.178 4.167 2.09 4.604 9.178-4.168.622 1.37-9.178 4.167 2.09 4.604 9.178-4.168.622 1.37-10.372 4.71-6.047-13.316zm19.963 19.79l-1.252.391-1.902-6.094-3.406 1.063 1.778 5.697-1.207.376-1.777-5.697-3.758 1.173 1.926 6.17-1.253.391-2.373-7.606 10.875-3.394 2.349 7.53zm-1.949 26.729l-1.304.147-1.785-15.9 1.304-.147 1.785 15.9z" fill="#fff"/></svg>