<svg width="206" height="206" viewBox="0 0 206 206" fill="none" xmlns="http://www.w3.org/2000/svg">
<path d="M96 86L119 104L96 122V98" stroke="#FE4A4A" stroke-linejoin="round"/>
<path d="M197.09 112.491C196.717 112.47 196.333 112.364 195.937 112.172C195.552 111.98 195.182 111.709 194.827 111.359C194.473 111.008 194.194 110.529 193.992 109.92C193.79 109.31 193.709 108.628 193.75 107.872C193.827 106.444 194.225 105.317 194.942 104.491C195.67 103.676 196.694 103.304 198.015 103.375L197.937 104.829C196.966 104.809 196.24 105.095 195.759 105.689C195.289 106.283 195.027 107.075 194.973 108.066C194.93 108.865 195.113 109.542 195.521 110.098C195.928 110.655 196.489 110.952 197.203 110.99C197.597 111.012 197.936 110.955 198.221 110.821C198.506 110.687 198.726 110.48 198.88 110.2C199.034 109.92 199.146 109.621 199.217 109.305C199.287 108.999 199.333 108.638 199.355 108.223C199.375 107.861 199.383 107.519 199.379 107.198L200.625 107.266C200.594 107.435 200.565 107.775 200.538 108.287C200.448 109.938 201.085 110.8 202.449 110.874C203.663 110.939 204.314 110.157 204.402 108.528C204.496 106.802 203.774 105.818 202.239 105.574L202.317 104.121C203.487 104.227 204.348 104.69 204.902 105.51C205.466 106.331 205.714 107.375 205.646 108.643C205.583 109.804 205.277 110.727 204.727 111.413C204.177 112.11 203.39 112.431 202.368 112.375C201.792 112.344 201.281 112.13 200.832 111.732C200.394 111.334 200.115 110.876 199.993 110.356L199.945 110.354C199.768 111.07 199.412 111.612 198.88 111.978C198.347 112.356 197.75 112.526 197.09 112.491Z" fill="#E74A26"/>
<path d="M203.953 121.022L191.975 123.486L192.258 121.83L195.909 121.172L196.715 116.457L193.496 114.591L193.765 113.014L204.239 119.35L203.953 121.022ZM197.167 120.933L202.682 119.912L197.825 117.085L197.167 120.933Z" fill="#E74A26"/>
<path d="M199.971 136.686L189.059 133.416L189.491 131.976L199.146 134.869L200.873 129.106L191.218 126.213L191.649 124.772L202.562 128.042L199.971 136.686Z" fill="#E74A26"/>
<path d="M189.738 139.611L199.113 139.128L198.46 140.641L190.766 140.944L195.847 146.693L195.206 148.177L188.635 140.512C187.955 139.718 187.531 139.018 187.363 138.411C187.191 137.814 187.221 137.246 187.454 136.708C187.657 136.238 187.931 135.845 188.276 135.529L189.451 136.037C189.152 136.245 188.895 136.598 188.68 137.098C188.43 137.676 188.686 138.402 189.447 139.276L189.738 139.611Z" fill="#E74A26"/>
<path d="M183.11 155.146C181.929 154.313 181.208 153.314 180.946 152.15C180.689 151.001 180.916 149.814 181.629 148.587C182.443 147.185 183.55 146.341 184.949 146.056C186.357 145.776 187.85 146.094 189.427 147.011C190.903 147.868 191.891 148.991 192.392 150.38C192.897 151.783 192.726 153.213 191.88 154.671C191.274 155.713 190.46 156.467 189.436 156.934C188.413 157.4 187.376 157.39 186.327 156.904L187.082 155.603C187.814 155.831 188.504 155.8 189.153 155.511C189.811 155.227 190.352 154.721 190.775 153.992C191.413 152.894 191.507 151.839 191.059 150.827C190.606 149.823 189.812 148.992 188.678 148.333C187.423 147.604 186.265 147.326 185.203 147.499C184.14 147.671 183.312 148.269 182.717 149.293C182.229 150.132 182.081 150.94 182.271 151.717C182.471 152.499 183.002 153.209 183.866 153.846L183.11 155.146Z" fill="#E74A26"/>
<path d="M182.729 167.617L181.677 166.834L183.96 163.766L175.874 157.748L176.772 156.542L184.858 162.56L187.141 159.492L188.194 160.276L182.729 167.617Z" fill="#E74A26"/>
<path d="M172.509 162.131L180.796 169.949L179.763 171.043L172.746 164.422L172.724 164.445L175.909 175.128L174.603 176.513L166.317 168.695L167.349 167.601L174.39 174.244L174.412 174.221L171.214 163.504L172.509 162.131Z" fill="#E74A26"/>
<path d="M165.697 184.229L164.853 183.223L167.783 180.765L161.303 173.044L162.455 172.077L168.935 179.799L171.864 177.341L172.707 178.346L165.697 184.229Z" fill="#E74A26"/>
<path d="M151.855 184.02C151.263 183.133 151.058 182.269 151.241 181.429C151.421 180.603 151.972 179.883 152.894 179.267L157.046 176.495L163.372 185.969L162.121 186.804L159.553 182.959L156.652 184.895C155.721 185.517 154.836 185.749 153.999 185.589C153.168 185.439 152.453 184.916 151.855 184.02ZM153.119 183.176C153.895 184.338 154.975 184.457 156.359 183.533L158.834 181.881L156.524 178.421L154.049 180.073C152.665 180.997 152.355 182.032 153.119 183.176Z" fill="#E74A26"/>
<path d="M141.355 198.183L136.645 187.811L138.015 187.189L142.182 196.367L147.66 193.879L143.493 184.701L144.862 184.079L149.572 194.452L141.355 198.183Z" fill="#E74A26"/>
<path d="M137.63 199.584L133.155 200.98C132.045 201.327 131.085 201.347 130.275 201.041C129.467 200.746 128.895 200.058 128.558 198.979C127.875 196.79 128.771 195.309 131.245 194.537L134.193 193.617L132.801 189.157L134.237 188.709L137.63 199.584ZM135.809 198.795L134.569 194.824L131.805 195.686C131.031 195.928 130.475 196.258 130.136 196.676C129.79 197.108 129.734 197.696 129.965 198.439C130.096 198.857 130.275 199.181 130.503 199.411C130.722 199.645 130.984 199.786 131.29 199.836C131.596 199.886 131.898 199.887 132.196 199.838C132.497 199.8 132.846 199.719 133.243 199.595L135.809 198.795Z" fill="#E74A26"/>
<path d="M121.574 204.072C119.873 204.376 118.454 204.077 117.317 203.175C116.183 202.284 115.461 200.977 115.153 199.255C114.844 197.523 115.055 196.011 115.789 194.72C116.522 193.43 117.745 192.631 119.456 192.325C120.328 192.169 121.138 192.187 121.888 192.378C122.637 192.569 123.282 192.903 123.823 193.381C124.353 193.86 124.797 194.437 125.156 195.109C125.504 195.784 125.752 196.536 125.901 197.365C126.214 199.119 125.981 200.602 125.201 201.814C124.41 203.028 123.201 203.781 121.574 204.072ZM121.343 202.78C122.592 202.557 123.474 201.944 123.988 200.942C124.494 199.952 124.631 198.811 124.4 197.52C124.149 196.113 123.596 195.052 122.742 194.338C121.88 193.636 120.855 193.392 119.669 193.604C118.493 193.814 117.628 194.402 117.075 195.368C116.522 196.334 116.37 197.515 116.62 198.912C116.868 200.298 117.423 201.342 118.285 202.043C119.137 202.747 120.156 202.993 121.343 202.78Z" fill="#E74A26"/>
<path d="M112.35 205.196L110.272 205.268L106.275 195.753L103.076 205.518L100.981 205.591L100.585 194.206L102.009 194.156L102.339 203.654L105.574 194.032L106.886 193.987L110.846 203.359L110.515 193.861L111.955 193.81L112.35 205.196Z" fill="#E74A26"/>
<path d="M92.1337 205.142C90.4157 204.956 89.1382 204.271 88.301 203.085C87.4626 201.911 87.1377 200.454 87.3261 198.715C87.5157 196.965 88.1439 195.574 89.2107 194.542C90.2774 193.509 91.6751 193.087 93.4036 193.274C94.2838 193.369 95.0566 193.614 95.7221 194.008C96.3875 194.402 96.9124 194.904 97.2969 195.515C97.6708 196.124 97.9353 196.801 98.0905 197.548C98.2351 198.293 98.2619 199.085 98.1712 199.922C97.9793 201.693 97.3386 203.051 96.2492 203.995C95.1492 204.938 93.7774 205.32 92.1337 205.142ZM92.275 203.838C93.537 203.975 94.5555 203.634 95.3308 202.817C96.0942 202.009 96.5466 200.953 96.688 199.649C96.842 198.228 96.6097 197.055 95.9911 196.129C95.3608 195.214 94.4464 194.691 93.2481 194.561C92.0604 194.432 91.0653 194.753 90.2629 195.525C89.4604 196.296 88.9828 197.387 88.83 198.797C88.6783 200.197 88.9176 201.355 89.548 202.271C90.1677 203.186 91.0767 203.708 92.275 203.838Z" fill="#E74A26"/>
<path d="M62.7742 190.683L63.2212 189.45L78.2638 194.902L77.8167 196.135L62.7742 190.683Z" fill="#E74A26"/>
<path d="M48.2913 179.944C48.494 179.631 48.7771 179.35 49.1405 179.102C49.4981 178.864 49.9171 178.677 50.3975 178.543C50.8779 178.409 51.4326 178.406 52.0616 178.533C52.6907 178.661 53.3231 178.93 53.9591 179.341C55.1594 180.117 55.9398 181.022 56.3005 182.055C56.6464 183.092 56.4602 184.166 55.742 185.276L54.5193 184.486C55.0195 183.653 55.1315 182.881 54.8553 182.169C54.5732 181.466 54.0157 180.845 53.1827 180.306C52.5109 179.872 51.8323 179.693 51.147 179.771C50.4616 179.849 49.9249 180.188 49.5369 180.788C49.3226 181.119 49.2028 181.442 49.1777 181.756C49.1525 182.07 49.2231 182.363 49.3897 182.636C49.5562 182.909 49.7594 183.155 49.9991 183.373C50.2299 183.586 50.52 183.805 50.8693 184.031C51.1739 184.228 51.4663 184.404 51.7466 184.56L51.069 185.608C50.9372 185.498 50.6564 185.303 50.2264 185.025C48.8381 184.128 47.7732 184.252 47.0318 185.398C46.3716 186.42 46.7266 187.373 48.0971 188.259C49.5482 189.198 50.7608 189.061 51.735 187.849L52.9576 188.64C52.2847 189.602 51.4546 190.119 50.4674 190.192C49.4745 190.274 48.445 189.971 47.3791 189.281C46.4028 188.65 45.7536 187.925 45.4315 187.107C45.1004 186.284 45.2128 185.442 45.7689 184.582C46.0816 184.098 46.5222 183.761 47.0905 183.569C47.6531 183.387 48.1899 183.372 48.7009 183.524L48.727 183.484C48.1932 182.974 47.8996 182.397 47.8462 181.752C47.7838 181.102 47.9322 180.5 48.2913 179.944Z" fill="#E74A26"/>
<path d="M37.4804 181.642L41.3115 170.028L42.6062 171.098L41.3578 174.592L45.0448 177.64L48.2662 175.778L49.4993 176.797L38.7875 182.722L37.4804 181.642ZM40.9384 175.802L39.0762 181.093L43.9472 178.29L40.9384 175.802Z" fill="#E74A26"/>
<path d="M25.9117 170.443L34.1693 162.595L35.2054 163.685L27.8988 170.629L32.0432 174.99L39.3498 168.046L40.3859 169.136L32.1283 176.984L25.9117 170.443Z" fill="#E74A26"/>
<path d="M28.5166 160.205L24.3104 168.598L23.3168 167.284L26.8503 160.442L19.3424 162.024L18.3681 160.735L28.2779 158.801C29.3033 158.601 30.1214 158.578 30.732 158.732C31.3363 158.877 31.8153 159.183 32.169 159.651C32.4777 160.06 32.6841 160.492 32.7881 160.948L31.7669 161.72C31.7336 161.357 31.553 160.959 31.225 160.525C30.8456 160.023 30.0877 159.887 28.9515 160.117L28.5166 160.205Z" fill="#E74A26"/>
<path d="M18.3201 146.863C19.6273 146.246 20.8517 146.109 21.9933 146.454C23.1203 146.796 24.0423 147.578 24.7594 148.802C25.5789 150.201 25.7684 151.58 25.3278 152.938C24.8781 154.302 23.8663 155.445 22.2924 156.367C20.8198 157.229 19.3558 157.537 17.9004 157.289C16.4303 157.038 15.2694 156.185 14.4175 154.731C13.8083 153.691 13.5526 152.61 13.6503 151.49C13.7481 150.37 14.267 149.472 15.2071 148.798L15.9673 150.096C15.4093 150.62 15.0964 151.236 15.0286 151.943C14.9516 152.656 15.126 153.376 15.552 154.103C16.1936 155.198 17.0653 155.8 18.1673 155.909C19.264 156.008 20.3783 155.726 21.5104 155.063C22.7621 154.33 23.5744 153.458 23.9472 152.449C24.32 151.439 24.2072 150.424 23.6088 149.402C23.1182 148.565 22.488 148.037 21.7182 147.821C20.9393 147.61 20.06 147.723 19.0803 148.161L18.3201 146.863Z" fill="#E74A26"/>
<path d="M7.66667 140.401L8.86727 139.872L10.4093 143.371L19.6334 139.306L20.2399 140.683L11.0158 144.747L12.5579 148.247L11.3573 148.776L7.66667 140.401Z" fill="#E74A26"/>
<path d="M17.5145 134.323L6.62695 137.675L6.18434 136.238L15.4051 133.398L15.3957 133.368L4.5316 130.87L3.97127 129.051L14.8588 125.698L15.3014 127.136L6.05007 129.984L6.05949 130.015L16.9588 132.518L17.5145 134.323Z" fill="#E74A26"/>
<path d="M1.65647 117.456L2.94708 117.22L3.63479 120.981L13.5504 119.169L13.8209 120.648L3.90527 122.461L4.59299 126.222L3.30238 126.458L1.65647 117.456Z" fill="#E74A26"/>
<path d="M8.68927 105.452C9.75336 105.378 10.6048 105.628 11.2436 106.204C11.8711 106.77 12.2233 107.606 12.3003 108.713L12.6466 113.693L1.28208 114.483L1.17772 112.983L5.79058 112.662L5.54857 109.182C5.47086 108.065 5.70885 107.183 6.26256 106.535C6.80563 105.887 7.61453 105.526 8.68927 105.452ZM8.79473 106.968C7.40077 107.065 6.76151 107.943 6.87697 109.603L7.08346 112.572L11.2334 112.283L11.0269 109.315C10.9115 107.655 10.1674 106.872 8.79473 106.968Z" fill="#E74A26"/>
<path d="M1.57427 89.25L12.9175 90.3028L12.7785 91.8004L2.74166 90.8688L2.18568 96.859L12.2225 97.7906L12.0835 99.2882L0.740295 98.2354L1.57427 89.25Z" fill="#E74A26"/>
<path d="M2.19935 85.2246L3.20042 80.6447C3.4487 79.5088 3.90624 78.6644 4.57305 78.1114C5.22943 77.5561 6.10992 77.3991 7.21451 77.6406C9.45494 78.1303 10.2984 79.6412 9.74492 82.1735L9.08551 85.1902L13.6497 86.1879L13.3286 87.6572L2.19935 85.2246ZM3.78662 84.032L7.85067 84.9203L8.46908 82.0911C8.64219 81.2991 8.63068 80.6524 8.43457 80.151C8.23032 79.6369 7.74784 79.2966 6.98713 79.1304C6.55988 79.037 6.18964 79.0325 5.87639 79.1169C5.56542 79.1908 5.3126 79.3485 5.11791 79.5898C4.92322 79.8311 4.77314 80.0931 4.66768 80.3758C4.5518 80.6562 4.44944 80.9996 4.36061 81.406L3.78662 84.032Z" fill="#E74A26"/>
<path d="M6.29814 68.8732C6.88082 67.2464 7.84616 66.1646 9.19415 65.6277C10.5321 65.0872 12.0245 65.1119 13.6714 65.7017C15.3283 66.2952 16.534 67.2312 17.2883 68.5098C18.0427 69.7884 18.1268 71.2462 17.5405 72.883C17.2419 73.7165 16.8233 74.4106 16.2847 74.9655C15.746 75.5204 15.1351 75.9134 14.4518 76.1445C13.7721 76.3656 13.0513 76.4643 12.2893 76.4406C11.5309 76.4069 10.755 76.248 9.96173 75.9639C8.28472 75.3632 7.1146 74.4229 6.45135 73.1429C5.7917 71.853 5.74063 70.4297 6.29814 68.8732ZM7.5333 69.3156C7.10528 70.5106 7.19793 71.5805 7.81126 72.5253C8.41814 73.4565 9.33916 74.1433 10.5743 74.5857C11.9199 75.0677 13.1149 75.1161 14.1593 74.7311C15.1972 74.3324 15.9193 73.5656 16.3258 72.4309C16.7286 71.3062 16.6489 70.2636 16.0865 69.303C15.5241 68.3425 14.5751 67.623 13.2396 67.1446C11.914 66.6699 10.7323 66.6318 9.69441 67.0305C8.66011 67.4192 7.93974 68.1809 7.5333 69.3156Z" fill="#E74A26"/>
<path d="M9.80949 60.4711L10.7803 58.6316L21.0231 59.8945L14.141 52.264L15.1193 50.4103L25.1942 55.7276L24.5296 56.987L16.1244 52.5509L22.8642 60.1425L22.2518 61.3028L12.1513 60.0788L20.5565 64.5149L19.8844 65.7884L9.80949 60.4711Z" fill="#E74A26"/>
<path d="M19.7734 43.1185C20.7899 41.7211 22.0205 40.9543 23.465 40.818C24.901 40.6754 26.3263 41.1186 27.7409 42.1476C29.1642 43.183 30.0581 44.4202 30.4226 45.8593C30.7871 47.2984 30.458 48.7209 29.4353 50.1269C28.9145 50.8429 28.3176 51.3914 27.6447 51.7725C26.9718 52.1535 26.275 52.3589 25.5543 52.3887C24.8398 52.4098 24.1203 52.3019 23.3957 52.065C22.6774 51.8194 21.9775 51.4488 21.2961 50.9531C19.8555 49.9053 18.9969 48.6739 18.7202 47.2592C18.4498 45.8358 18.8009 44.4555 19.7734 43.1185ZM20.8344 43.8903C20.0877 44.9168 19.8759 45.9696 20.1989 47.0487C20.5196 48.113 21.2104 49.031 22.2714 49.8028C23.4272 50.6436 24.5604 51.026 25.6709 50.95C26.779 50.8592 27.6876 50.3264 28.3966 49.3516C29.0994 48.3855 29.3159 47.3625 29.0463 46.2826C28.7766 45.2027 28.0681 44.2455 26.9209 43.4109C25.7823 42.5827 24.6589 42.214 23.5508 42.3049C22.4489 42.3871 21.5435 42.9156 20.8344 43.8903Z" fill="#E74A26"/>
<path d="M46.4638 25.0492L47.318 26.045L35.1745 36.463L34.3203 35.4673L46.4638 25.0492Z" fill="#E74A26"/>
<path d="M63.0608 17.5456C63.2338 17.8764 63.3386 18.261 63.3753 18.6992C63.407 19.128 63.3628 19.5845 63.2429 20.0686C63.1229 20.5526 62.8526 21.0371 62.4321 21.5219C62.0116 22.0066 61.4657 22.4245 60.7947 22.7756C59.5281 23.438 58.3563 23.6718 57.2793 23.4767C56.2067 23.2673 55.3639 22.5766 54.7509 21.4046L56.0411 20.7298C56.5193 21.575 57.1364 22.0528 57.8922 22.163C58.6431 22.2638 59.4581 22.0843 60.3371 21.6245C61.046 21.2538 61.5354 20.751 61.8053 20.1163C62.0751 19.4816 62.0445 18.8476 61.7132 18.2143C61.5303 17.8646 61.3084 17.6015 61.0476 17.4249C60.7867 17.2484 60.4965 17.1655 60.1771 17.1761C59.8576 17.1867 59.5437 17.2425 59.2355 17.3436C58.9366 17.4397 58.6029 17.5841 58.2343 17.7769C57.9129 17.945 57.6154 18.1127 57.3417 18.2799L56.7633 17.174C56.9244 17.1138 57.2318 16.9651 57.6855 16.7278C59.1506 15.9615 59.5667 14.9734 58.9339 13.7636C58.3703 12.6861 57.3654 12.5255 55.9193 13.2819C54.3881 14.0828 53.91 15.2056 54.4851 16.6503L53.1949 17.3251C52.6889 16.2657 52.6472 15.2883 53.0698 14.3932C53.4874 13.4886 54.2586 12.7422 55.3834 12.1538C56.4136 11.615 57.364 11.4068 58.2346 11.5292C59.1146 11.6467 59.792 12.1592 60.2666 13.0665C60.5335 13.5769 60.6104 14.1266 60.4971 14.7155C60.3789 15.295 60.1275 15.7695 59.743 16.1391L59.7653 16.1817C60.4723 15.9684 61.1193 15.9971 61.7063 16.2679C62.3028 16.5337 62.7543 16.9596 63.0608 17.5456Z" fill="#E74A26"/>
<path d="M66.6924 7.34411L74.927 16.3859L73.3586 16.9878L70.9287 14.1844L66.4624 15.8986L66.5022 19.6193L65.0085 20.1927L65.109 7.95183L66.6924 7.34411ZM70.0805 13.2246L66.3868 9.00382L66.4357 14.6235L70.0805 13.2246Z" fill="#E74A26"/>
<path d="M82.6357 2.63257L85.3641 13.693L83.9038 14.0532L81.4897 4.26659L75.6488 5.70742L78.0629 15.4941L76.6027 15.8543L73.8743 4.79381L82.6357 2.63257Z" fill="#E74A26"/>
<path d="M90.0377 9.9834L84.844 2.1629L86.4787 1.95391L90.6604 8.4198L93.0174 1.11794L94.6204 0.913001L91.3746 10.4738C91.0387 11.4631 90.6524 12.1845 90.2158 12.6382C89.7897 13.0906 89.2857 13.354 88.7038 13.4284C88.1959 13.4933 87.7182 13.4576 87.2706 13.3212L87.1083 12.0516C87.4395 12.2028 87.8749 12.2439 88.4145 12.1749C89.0387 12.0951 89.5332 11.505 89.8979 10.4045L90.0377 9.9834Z" fill="#E74A26"/>
<path d="M106.784 7.70811C106.672 9.14949 106.184 10.2806 105.319 11.1013C104.464 11.9112 103.327 12.3244 101.909 12.3409C100.288 12.3596 98.9963 11.8412 98.0347 10.7856C97.0729 9.71936 96.5815 8.27429 96.5604 6.45041C96.5406 4.74386 96.9988 3.31979 97.935 2.1782C98.8817 1.02583 100.198 0.439885 101.883 0.420369C103.088 0.406411 104.153 0.719432 105.078 1.35943C106.003 1.99943 106.525 2.89478 106.645 4.04546L105.141 4.06288C104.962 3.31824 104.582 2.74127 104.001 2.33197C103.42 1.912 102.709 1.70689 101.866 1.71665C100.597 1.73135 99.6419 2.19044 99.0017 3.09391C98.3721 3.99726 98.0649 5.1049 98.0801 6.41681C98.0969 7.86738 98.4514 9.00468 99.1437 9.82872C99.8359 10.6528 100.774 11.0579 101.958 11.0442C102.929 11.033 103.699 10.7467 104.268 10.1854C104.838 9.61344 105.175 8.79348 105.28 7.72552L106.784 7.70811Z" fill="#E74A26"/>
<path d="M118.41 1.71741L118.268 3.02177L114.466 2.60981L113.38 12.6311L111.885 12.4691L112.971 2.44778L109.169 2.03582L109.311 0.731453L118.41 1.71741Z" fill="#E74A26"/>
<path d="M118.589 13.2356L121.106 2.12524L122.573 2.4576L120.441 11.8671L120.472 11.8742L128.05 3.69862L129.907 4.11936L127.39 15.2297L125.923 14.8974L128.062 5.45669L128.031 5.44962L120.43 13.6528L118.589 13.2356Z" fill="#E74A26"/>
<path d="M141.176 7.88315L140.738 9.11996L137.133 7.84405L133.77 17.3464L132.352 16.8446L135.716 7.34222L132.111 6.06631L132.549 4.8295L141.176 7.88315Z" fill="#E74A26"/>
<path d="M147.577 19.69C147.114 20.6511 146.475 21.2667 145.658 21.5366C144.856 21.8016 143.955 21.6935 142.956 21.2124L138.457 19.0476L143.398 8.78255L144.753 9.43479L142.748 13.6014L145.891 15.114C146.9 15.5997 147.549 16.2435 147.838 17.0454C148.131 17.8377 148.044 18.7192 147.577 19.69ZM146.207 19.0308C146.813 17.7717 146.367 16.7814 144.867 16.0597L142.186 14.7691L140.382 18.5176L143.063 19.8082C144.563 20.5298 145.611 20.2707 146.207 19.0308Z" fill="#E74A26"/>
<path d="M165.521 21.7578L158.955 31.0673L157.726 30.2004L163.536 21.9631L158.62 18.4957L152.81 26.733L151.581 25.8661L158.147 16.5567L165.521 21.7578Z" fill="#E74A26"/>
<path d="M168.571 24.1926L172.05 27.3347C172.913 28.114 173.419 28.9303 173.569 29.7836C173.725 30.6291 173.424 31.4713 172.666 32.3105C171.129 34.0125 169.399 33.9948 167.475 32.2576L165.183 30.1879L162.052 33.6552L160.936 32.6472L168.571 24.1926ZM168.819 26.1625L166.031 29.2498L168.18 31.1908C168.782 31.7342 169.349 32.0451 169.881 32.1238C170.429 32.2016 170.964 31.9516 171.486 31.3737C171.779 31.0491 171.967 30.7299 172.049 30.4161C172.139 30.1094 172.127 29.8117 172.015 29.5229C171.902 29.2341 171.749 28.9738 171.556 28.7419C171.37 28.5022 171.122 28.2429 170.814 27.9641L168.819 26.1625Z" fill="#E74A26"/>
<path d="M180.416 35.4764C181.545 36.7838 182.013 38.1564 181.817 39.5942C181.63 41.0249 180.874 42.3123 179.551 43.4561C178.219 44.607 176.811 45.1964 175.327 45.2244C173.843 45.2525 172.532 44.6087 171.395 43.2933C170.816 42.6234 170.418 41.9176 170.2 41.1757C169.981 40.4338 169.94 39.7086 170.074 38.9999C170.216 38.2994 170.485 37.6232 170.88 36.9714C171.282 36.3276 171.802 35.7302 172.44 35.1792C173.788 34.0144 175.182 33.458 176.622 33.51C178.07 33.57 179.334 34.2255 180.416 35.4764ZM179.423 36.3343C178.593 35.3739 177.616 34.9284 176.491 34.9978C175.382 35.0683 174.331 35.5325 173.339 36.3904C172.257 37.325 171.627 38.3417 171.449 39.4403C171.286 40.5401 171.598 41.546 172.386 42.458C173.167 43.3618 174.115 43.8051 175.227 43.7879C176.34 43.7706 177.434 43.2982 178.507 42.3705C179.572 41.4498 180.186 40.4396 180.35 39.3398C180.52 38.2481 180.211 37.2463 179.423 36.3343Z" fill="#E74A26"/>
<path d="M186.217 42.9245L187.34 44.6753L181.197 52.9684L191.227 50.7357L192.359 52.4999L182.77 58.6506L182.001 57.452L190.001 52.3207L180.075 54.4487L179.366 53.3444L185.405 45.1559L177.405 50.2872L176.628 49.0751L186.217 42.9245Z" fill="#E74A26"/>
<path d="M196.46 60.2287C197.174 61.8021 197.234 63.2508 196.641 64.5747C196.057 65.8942 194.968 66.9157 193.375 67.6389C191.773 68.3666 190.256 68.5342 188.824 68.1417C187.392 67.7492 186.317 66.7614 185.598 65.1783C185.232 64.3722 185.049 63.5825 185.05 62.8092C185.05 62.0358 185.215 61.3284 185.544 60.6867C185.878 60.0548 186.327 59.482 186.89 58.9684C187.458 58.4646 188.126 58.0385 188.893 57.6901C190.515 56.9536 192.009 56.8138 193.377 57.2707C194.748 57.7373 195.776 58.7233 196.46 60.2287ZM195.265 60.7712C194.74 59.6154 193.929 58.912 192.831 58.6608C191.747 58.415 190.607 58.5633 189.413 59.1058C188.111 59.6968 187.22 60.494 186.738 61.4976C186.271 62.5064 186.286 63.5596 186.785 64.657C187.279 65.7448 188.062 66.4376 189.134 66.7355C190.207 67.0335 191.389 66.8891 192.681 66.3026C193.963 65.7204 194.837 64.9249 195.305 63.9161C195.777 62.917 195.763 61.8687 195.265 60.7712Z" fill="#E74A26"/>
<path d="M199.024 92.7792L197.735 93.025L194.738 77.3084L196.026 77.0626L199.024 92.7792Z" fill="#E74A26"/>
</svg>
