<svg width="206" height="206" fill="none" xmlns="http://www.w3.org/2000/svg"><path d="M96 86l23 18-23 18V98" stroke="#FE4A4A" stroke-linejoin="round"/><path d="M197.09 112.491a3.03 3.03 0 01-1.153-.319 4.367 4.367 0 01-1.11-.813c-.354-.351-.633-.83-.835-1.439-.202-.61-.283-1.292-.242-2.048.077-1.428.475-2.555 1.192-3.381.728-.815 1.752-1.187 3.073-1.116l-.078 1.454c-.971-.02-1.697.266-2.178.86-.47.594-.732 1.386-.786 2.377-.043.799.14 1.476.548 2.032.407.557.968.854 1.682.892.394.022.733-.035 1.018-.169a1.43 1.43 0 00.659-.621 3.39 3.39 0 00.337-.895c.07-.306.116-.667.138-1.082.02-.362.028-.704.024-1.025l1.246.068c-.031.169-.06.509-.087 1.021-.09 1.651.547 2.513 1.911 2.587 1.214.065 1.865-.717 1.953-2.346.094-1.726-.628-2.71-2.163-2.954l.078-1.453c1.17.106 2.031.569 2.585 1.389.564.821.812 1.865.744 3.133-.063 1.161-.369 2.084-.919 2.77-.55.697-1.337 1.018-2.359.962a2.457 2.457 0 01-1.536-.643c-.438-.398-.717-.856-.839-1.376l-.048-.002c-.177.716-.533 1.258-1.065 1.624a2.756 2.756 0 01-1.79.513zm6.863 8.531l-11.978 2.464.283-1.656 3.651-.658.806-4.715-3.219-1.866.269-1.577 10.474 6.336-.286 1.672zm-6.786-.089l5.515-1.021-4.857-2.827-.658 3.848zm2.804 15.753l-10.912-3.27.432-1.44 9.655 2.893 1.727-5.763-9.655-2.893.431-1.441 10.913 3.27-2.591 8.644zm-10.233 2.925l9.375-.483-.653 1.513-7.694.303 5.081 5.749-.641 1.484-6.571-7.665c-.68-.794-1.104-1.494-1.272-2.101-.172-.597-.142-1.165.091-1.703.203-.47.477-.863.822-1.179l1.175.508c-.299.208-.556.561-.771 1.061-.25.578.006 1.304.767 2.178l.291.335zm-6.628 15.535c-1.181-.833-1.902-1.832-2.164-2.996-.257-1.149-.03-2.336.683-3.563.814-1.402 1.921-2.246 3.32-2.531 1.408-.28 2.901.038 4.478.955 1.476.857 2.464 1.98 2.965 3.369.505 1.403.334 2.833-.512 4.291-.606 1.042-1.42 1.796-2.444 2.263-1.023.466-2.06.456-3.109-.03l.755-1.301c.732.228 1.422.197 2.071-.092.658-.284 1.199-.79 1.622-1.519.638-1.098.732-2.153.284-3.165-.453-1.004-1.247-1.835-2.381-2.494-1.255-.729-2.413-1.007-3.475-.834-1.063.172-1.891.77-2.486 1.794-.488.839-.636 1.647-.446 2.424.2.782.731 1.492 1.595 2.129l-.756 1.3zm-.381 12.471l-1.052-.783 2.283-3.068-8.086-6.018.898-1.206 8.086 6.018 2.283-3.068 1.053.784-5.465 7.341zm-10.22-5.486l8.287 7.818-1.033 1.094-7.017-6.621-.022.023 3.185 10.683-1.306 1.385-8.286-7.818 1.032-1.094 7.041 6.643.022-.023-3.198-10.717 1.295-1.373zm-6.812 22.098l-.844-1.006 2.93-2.458-6.48-7.721 1.152-.967 6.48 7.722 2.929-2.458.843 1.005-7.01 5.883zm-13.842-.209c-.592-.887-.797-1.751-.614-2.591.18-.826.731-1.546 1.653-2.162l4.152-2.772 6.326 9.474-1.251.835-2.568-3.845-2.901 1.936c-.931.622-1.816.854-2.653.694-.831-.15-1.546-.673-2.144-1.569zm1.264-.844c.776 1.162 1.856 1.281 3.24.357l2.475-1.652-2.31-3.46-2.475 1.652c-1.384.924-1.694 1.959-.93 3.103zm-11.764 15.007l-4.71-10.372 1.37-.622 4.167 9.178 5.478-2.488-4.167-9.178 1.369-.622 4.71 10.373-8.217 3.731zm-3.725 1.401l-4.475 1.396c-1.11.347-2.07.367-2.88.061-.808-.295-1.38-.983-1.717-2.062-.683-2.189.213-3.67 2.687-4.442l2.948-.92-1.392-4.46 1.436-.448 3.393 10.875zm-1.821-.789l-1.24-3.971-2.764.862c-.774.242-1.33.572-1.669.99-.346.432-.402 1.02-.171 1.763.131.418.31.742.538.972.219.234.481.375.787.425.306.05.608.051.906.002.301-.038.65-.119 1.047-.243l2.566-.8zm-14.235 5.277c-1.701.304-3.12.005-4.257-.897-1.134-.891-1.856-2.198-2.164-3.92-.309-1.732-.098-3.244.636-4.535.733-1.29 1.956-2.089 3.667-2.395.872-.156 1.682-.138 2.432.053a4.582 4.582 0 011.935 1.003c.53.479.974 1.056 1.333 1.728a7.97 7.97 0 01.745 2.256c.313 1.754.08 3.237-.7 4.449-.791 1.214-2 1.967-3.627 2.258zm-.231-1.292c1.249-.223 2.131-.836 2.645-1.838.506-.99.643-2.131.412-3.422-.251-1.407-.804-2.468-1.658-3.182-.862-.702-1.887-.946-3.073-.734-1.176.21-2.041.798-2.594 1.764-.553.966-.705 2.147-.455 3.544.248 1.386.803 2.43 1.665 3.131.852.704 1.871.95 3.058.737zm-8.993 2.416l-2.078.072-3.997-9.515-3.199 9.765-2.095.073-.396-11.385 1.424-.05.33 9.498 3.235-9.622 1.312-.045 3.96 9.372-.331-9.498 1.44-.051.395 11.386zm-20.216-.054c-1.718-.186-2.996-.871-3.833-2.057-.838-1.174-1.163-2.631-.975-4.37.19-1.75.818-3.141 1.885-4.173 1.066-1.033 2.464-1.455 4.193-1.268.88.095 1.653.34 2.318.734.666.394 1.19.896 1.575 1.507.374.609.638 1.286.794 2.033.144.745.17 1.537.08 2.374-.192 1.771-.832 3.129-1.922 4.073-1.1.943-2.472 1.325-4.115 1.147zm.141-1.304c1.262.137 2.28-.204 3.056-1.021.763-.808 1.216-1.864 1.357-3.168.154-1.421-.078-2.594-.697-3.52-.63-.915-1.545-1.438-2.743-1.568-1.188-.129-2.183.192-2.985.964-.803.771-1.28 1.862-1.433 3.272-.152 1.4.088 2.558.718 3.474.62.915 1.529 1.437 2.727 1.567zm-29.501-13.155l.447-1.233 15.043 5.452-.447 1.233-15.043-5.452zm-14.483-10.739c.203-.313.486-.594.85-.842a4.374 4.374 0 011.257-.559c.48-.134 1.035-.137 1.664-.01.629.128 1.261.397 1.897.808 1.2.776 1.98 1.681 2.341 2.714.346 1.037.16 2.111-.558 3.221l-1.223-.79c.5-.833.613-1.605.336-2.317-.282-.703-.84-1.324-1.672-1.863-.672-.434-1.35-.613-2.036-.535-.685.078-1.222.417-1.61 1.017-.214.331-.334.654-.36.968a1.43 1.43 0 00.213.88c.166.273.37.519.61.737.23.213.52.432.87.658.304.197.596.373.877.529l-.678 1.048a10.42 10.42 0 00-.843-.583c-1.388-.897-2.453-.773-3.194.373-.66 1.022-.305 1.975 1.065 2.861 1.451.939 2.664.802 3.638-.41l1.223.791c-.673.962-1.503 1.479-2.49 1.552-.994.082-2.023-.221-3.089-.911-.976-.631-1.625-1.356-1.947-2.174-.332-.823-.22-1.665.337-2.525a2.46 2.46 0 011.322-1.013c.562-.182 1.099-.197 1.61-.045l.026-.04c-.534-.51-.827-1.087-.88-1.732a2.758 2.758 0 01.444-1.808zm-10.811 1.698l3.832-11.614 1.294 1.07-1.248 3.494 3.687 3.048 3.221-1.862 1.233 1.019-10.712 5.925-1.307-1.08zm3.458-5.84l-1.862 5.291 4.871-2.803-3.009-2.488zm-15.026-5.359l8.257-7.848 1.036 1.09-7.306 6.944 4.144 4.361 7.307-6.944 1.036 1.09-8.258 7.848-6.216-6.541zm2.605-10.238l-4.207 8.393-.993-1.314 3.533-6.842-7.508 1.582-.974-1.289 9.91-1.934c1.025-.2 1.843-.223 2.454-.069.604.145 1.083.451 1.437.919.309.409.515.841.62 1.297l-1.022.772c-.033-.363-.214-.761-.542-1.195-.38-.502-1.137-.638-2.274-.408l-.434.088zM18.32 146.863c1.307-.617 2.532-.754 3.673-.409 1.127.342 2.05 1.124 2.766 2.348.82 1.399 1.01 2.778.569 4.136-.45 1.364-1.462 2.507-3.036 3.429-1.472.862-2.936 1.17-4.392.922-1.47-.251-2.63-1.104-3.482-2.558-.61-1.04-.865-2.121-.768-3.241.098-1.12.617-2.018 1.557-2.692l.76 1.298c-.558.524-.87 1.14-.938 1.847-.077.713.097 1.433.523 2.16.642 1.095 1.513 1.697 2.615 1.806 1.097.099 2.211-.183 3.343-.846 1.252-.733 2.064-1.605 2.437-2.614.373-1.01.26-2.025-.338-3.047-.49-.837-1.121-1.365-1.89-1.581-.78-.211-1.659-.098-2.639.34l-.76-1.298zm-10.653-6.462l1.2-.529 1.542 3.499 9.224-4.065.607 1.377-9.224 4.064 1.542 3.5-1.2.529-3.691-8.375zm9.848-6.078l-10.888 3.352-.443-1.437 9.221-2.84-.01-.03-10.863-2.498-.56-1.819 10.887-3.353.442 1.438-9.25 2.848.008.031 10.9 2.503.556 1.805zM1.656 117.456l1.291-.236.688 3.761 9.915-1.812.27 1.479-9.915 1.813.688 3.761-1.29.236-1.647-9.002zm7.034-12.004c1.063-.074 1.915.176 2.554.752.627.566.98 1.402 1.056 2.509l.347 4.98-11.365.79-.104-1.5 4.613-.321-.242-3.48c-.078-1.117.16-1.999.714-2.647.543-.648 1.352-1.009 2.426-1.083zm.105 1.516c-1.394.097-2.033.975-1.918 2.635l.206 2.969 4.15-.289-.206-2.968c-.115-1.66-.86-2.443-2.232-2.347zM1.574 89.25l11.344 1.053-.14 1.497-10.036-.931-.556 5.99 10.037.932-.14 1.497L.74 98.235l.834-8.985zm.626-4.025l1-4.58c.249-1.136.706-1.98 1.373-2.534.656-.555 1.537-.712 2.642-.47 2.24.49 3.083 2 2.53 4.532l-.66 3.017 4.565.998-.321 1.47-11.13-2.433zm1.587-1.193l4.064.888.618-2.829c.173-.792.162-1.439-.034-1.94-.205-.514-.687-.854-1.448-1.02-.427-.094-.797-.099-1.11-.014a1.346 1.346 0 00-.76.473 2.809 2.809 0 00-.45.786c-.115.28-.218.624-.306 1.03l-.574 2.626zm2.511-15.159c.583-1.627 1.548-2.708 2.896-3.245 1.338-.54 2.83-.516 4.477.074 1.657.593 2.863 1.53 3.617 2.808.755 1.278.839 2.736.253 4.373-.3.834-.718 1.528-1.256 2.083a4.58 4.58 0 01-1.833 1.178c-.68.222-1.4.32-2.163.297a7.935 7.935 0 01-2.327-.477c-1.677-.6-2.847-1.541-3.51-2.821-.66-1.29-.711-2.713-.154-4.27zm1.235.443c-.428 1.195-.335 2.264.278 3.21.607.93 1.528 1.617 2.763 2.06 1.346.482 2.54.53 3.585.145 1.038-.399 1.76-1.165 2.167-2.3.403-1.125.323-2.167-.24-3.128-.562-.96-1.51-1.68-2.846-2.158-1.326-.475-2.508-.513-3.546-.114-1.034.388-1.754 1.15-2.16 2.285zm2.277-8.845l.97-1.84 10.243 1.264-6.882-7.631.978-1.854 10.075 5.318-.664 1.259-8.406-4.436 6.74 7.591-.612 1.16-10.1-1.223 8.405 4.436-.673 1.273L9.81 60.471zm9.963-17.353c1.017-1.397 2.247-2.164 3.692-2.3 1.436-.143 2.861.3 4.276 1.33 1.423 1.035 2.317 2.272 2.682 3.711.364 1.44.035 2.862-.988 4.268-.52.716-1.117 1.264-1.79 1.645a4.583 4.583 0 01-2.09.617 6.307 6.307 0 01-2.16-.324 7.935 7.935 0 01-2.099-1.112c-1.44-1.048-2.3-2.28-2.576-3.694-.27-1.423.08-2.803 1.053-4.14zm1.061.772c-.746 1.027-.958 2.08-.635 3.159.32 1.064 1.011 1.982 2.072 2.754 1.156.84 2.29 1.223 3.4 1.147 1.108-.09 2.017-.624 2.726-1.598.702-.966.919-1.99.65-3.07-.27-1.08-.979-2.036-2.126-2.871-1.139-.828-2.262-1.197-3.37-1.106-1.102.082-2.007.61-2.717 1.585zm25.63-18.84l.854.995-12.143 10.418-.855-.996L46.464 25.05zm16.596-7.504c.174.33.279.715.315 1.153.032.429-.012.885-.132 1.37-.12.484-.39.968-.81 1.453-.421.485-.967.902-1.638 1.254-1.267.662-2.439.896-3.516.7-1.072-.209-1.915-.9-2.528-2.071l1.29-.675c.478.845 1.095 1.323 1.851 1.433.751.1 1.566-.079 2.445-.538.709-.371 1.198-.874 1.468-1.509.27-.634.24-1.268-.092-1.902-.183-.35-.405-.612-.665-.79a1.43 1.43 0 00-.87-.248c-.32.01-.634.067-.942.168-.3.096-.633.24-1.002.433a15.45 15.45 0 00-.892.503l-.579-1.106c.161-.06.469-.209.922-.446 1.466-.767 1.882-1.755 1.249-2.964-.564-1.078-1.569-1.239-3.015-.482-1.53.8-2.009 1.924-1.434 3.368l-1.29.675c-.506-1.06-.548-2.037-.125-2.932.417-.904 1.189-1.65 2.313-2.24 1.03-.538 1.981-.746 2.852-.624.88.118 1.557.63 2.032 1.537.266.51.343 1.06.23 1.65-.118.579-.37 1.054-.754 1.423l.022.043c.707-.214 1.354-.185 1.941.086a2.757 2.757 0 011.355 1.278zm3.632-10.202l8.235 9.042-1.568.602-2.43-2.804-4.467 1.715.04 3.72-1.493.574.1-12.241 1.583-.608zm3.389 5.88l-3.694-4.22.049 5.62 3.644-1.4zM82.636 2.633l2.728 11.06-1.46.36-2.414-9.786-5.841 1.44 2.414 9.787-1.46.36-2.729-11.06 8.762-2.161zm7.402 7.35l-5.194-7.82 1.635-.21L90.66 8.42l2.357-7.302L94.62.913l-3.245 9.56c-.336.99-.723 1.711-1.16 2.165-.425.453-.93.716-1.511.79-.508.065-.986.03-1.433-.107l-.163-1.27c.331.152.767.193 1.306.124.625-.08 1.12-.67 1.484-1.77l.14-.422zm16.746-2.275c-.112 1.441-.6 2.573-1.465 3.393-.855.81-1.992 1.223-3.41 1.24-1.621.019-2.913-.5-3.874-1.555-.962-1.067-1.453-2.512-1.475-4.336-.02-1.706.439-3.13 1.375-4.272.947-1.152 2.263-1.738 3.948-1.758 1.205-.014 2.27.3 3.195.94.925.64 1.447 1.535 1.567 2.685l-1.504.018c-.179-.745-.559-1.322-1.14-1.731-.581-.42-1.292-.625-2.135-.615-1.269.014-2.224.473-2.864 1.377-.63.903-.937 2.01-.922 3.323.017 1.45.371 2.588 1.064 3.412.692.824 1.63 1.229 2.814 1.215.971-.011 1.741-.297 2.31-.859.57-.572.907-1.392 1.012-2.46l1.504-.017zm11.626-5.991l-.142 1.305-3.802-.412-1.086 10.021-1.495-.162 1.086-10.021-3.802-.412.142-1.305 9.099.986zm.179 11.519l2.517-11.11 1.467.332-2.132 9.41.031.006L128.05 3.7l1.857.42-2.517 11.11-1.467-.332 2.139-9.44-.031-.007-7.601 8.203-1.841-.417zm22.587-5.353l-.438 1.237-3.605-1.276-3.363 9.502-1.418-.501 3.364-9.503-3.605-1.276.438-1.236 8.627 3.053zm6.401 11.807c-.463.961-1.102 1.577-1.919 1.847-.802.265-1.703.157-2.702-.325l-4.499-2.164 4.941-10.265 1.355.652-2.005 4.166 3.143 1.513c1.009.486 1.658 1.13 1.947 1.931.293.793.206 1.674-.261 2.645zm-1.37-.66c.606-1.258.16-2.249-1.34-2.97l-2.681-1.29-1.804 3.748 2.681 1.29c1.5.722 2.548.463 3.144-.777zm19.314 2.728l-6.566 9.31-1.229-.868 5.81-8.237-4.916-3.467-5.81 8.237-1.229-.867 6.566-9.31 7.374 5.202zm3.05 2.435l3.479 3.142c.863.779 1.369 1.595 1.519 2.449.156.845-.145 1.687-.903 2.526-1.537 1.703-3.267 1.685-5.191-.052l-2.292-2.07-3.131 3.467-1.116-1.008 7.635-8.454zm.248 1.97l-2.788 3.087 2.149 1.94c.602.544 1.169.855 1.701.934.548.078 1.083-.172 1.605-.75.293-.325.481-.644.563-.958.09-.307.078-.604-.034-.893a2.815 2.815 0 00-.459-.781 6.258 6.258 0 00-.742-.778l-1.995-1.801zm11.597 9.313c1.129 1.308 1.597 2.68 1.401 4.118-.187 1.43-.943 2.718-2.266 3.862-1.332 1.151-2.74 1.74-4.224 1.768-1.484.029-2.795-.615-3.932-1.93-.579-.67-.977-1.376-1.195-2.118a4.582 4.582 0 01-.126-2.176 6.32 6.32 0 01.806-2.029 7.915 7.915 0 011.56-1.792c1.348-1.165 2.742-1.721 4.182-1.669 1.448.06 2.712.715 3.794 1.966zm-.993.858c-.83-.96-1.807-1.406-2.932-1.336-1.109.07-2.16.535-3.152 1.392-1.082.935-1.712 1.952-1.89 3.05-.163 1.1.149 2.106.937 3.018.781.904 1.729 1.347 2.841 1.33 1.113-.017 2.207-.49 3.28-1.417 1.065-.921 1.679-1.931 1.843-3.031.17-1.092-.139-2.094-.927-3.006zm6.794 6.591l1.123 1.75-6.143 8.293 10.03-2.232 1.132 1.764-9.589 6.15-.769-1.198 8-5.131-9.926 2.128-.709-1.105 6.039-8.188-8 5.131-.777-1.212 9.589-6.15zm10.243 17.304c.714 1.573.774 3.022.181 4.346-.584 1.32-1.673 2.34-3.266 3.064-1.602.728-3.119.895-4.551.503-1.432-.393-2.507-1.38-3.226-2.964-.366-.806-.549-1.595-.548-2.369 0-.773.165-1.48.494-2.122a6.317 6.317 0 011.346-1.719 7.945 7.945 0 012.003-1.278c1.622-.736 3.116-.876 4.484-.42 1.371.467 2.399 1.453 3.083 2.959zm-1.195.542c-.525-1.156-1.336-1.859-2.434-2.11-1.084-.246-2.224-.098-3.418.445-1.302.59-2.193 1.388-2.675 2.392-.467 1.008-.452 2.062.047 3.159.494 1.088 1.277 1.78 2.349 2.079 1.073.297 2.255.153 3.547-.433 1.282-.583 2.156-1.378 2.624-2.387.472-.999.458-2.047-.04-3.145zm3.759 32.009l-1.289.245-2.997-15.717 1.288-.245 2.998 15.716z" fill="#E74A26"/></svg>